<?xml version="1.0" standalone="no"?>
<!DOCTYPE svg PUBLIC "-//W3C//DTD SVG 1.1//EN" "http://www.w3.org/Graphics/SVG/1.1/DTD/svg11.dtd" >
<svg>
<metadata>
Created by FontForge 20110222 at Tue Aug 13 13:29:12 2013
 By Orthosie Webhosting
Copyright (c) 2012 Jeremy Mickel, MCKL, Inc. All rights reserved.
</metadata>
<defs>
<font id="WWDisplayExtrabold" horiz-adv-x="1447" >
  <font-face 
    font-family="WWDisplayExtrabold"
    font-weight="800"
    font-stretch="normal"
    units-per-em="2048"
    panose-1="0 0 0 0 0 0 0 0 0 0"
    ascent="1536"
    descent="-512"
    x-height="1028"
    cap-height="1434"
    bbox="-219 -528 2109 1956"
    underline-thickness="0"
    underline-position="0"
    unicode-range="U+000D-FB02"
  />
<missing-glyph horiz-adv-x="748" 
d="M68 0v1365h544v-1365h-544zM136 68h408v1229h-408v-1229z" />
    <glyph glyph-name="uniFB01" unicode="fi" horiz-adv-x="1343" 
d="M2 741v287h145v55q0 212 114 318t308 106q83 0 150.5 -20.5t109.5 -52.5l-69 -244q-60 31 -105 31q-62 0 -90 -33.5t-28 -106.5v-53h256v-287h-256v-741h-390v741h-145zM850 1313q0 194 219 194t219 -194q0 -191 -219 -191t-219 191zM870 0v1028h398v-1028h-398z" />
    <glyph glyph-name="uniFB02" unicode="fl" horiz-adv-x="1343" 
d="M2 741v287h145v55q0 212 114 318t308 106q80 0 149.5 -21t106.5 -52l-69 -244q-56 31 -105 31q-114 0 -114 -140v-53h256v-287h-256v-741h-390v741h-145zM870 0v1434h398v-1434h-398z" />
    <glyph glyph-name=".notdef" horiz-adv-x="748" 
d="M68 0v1365h544v-1365h-544zM136 68h408v1229h-408v-1229z" />
    <glyph glyph-name="glyph1" horiz-adv-x="2048" 
 />
    <glyph glyph-name="glyph1" horiz-adv-x="2048" 
 />
    <glyph glyph-name="uni000D" unicode="&#xd;" horiz-adv-x="2048" 
 />
    <glyph glyph-name="space" unicode=" " horiz-adv-x="409" 
 />
    <glyph glyph-name="exclam" unicode="!" horiz-adv-x="509" 
d="M47 176q0 96 53.5 145.5t155.5 49.5q101 0 155 -49.5t54 -145.5q0 -93 -54.5 -142.5t-154.5 -49.5q-102 0 -155.5 48.5t-53.5 143.5zM57 1436h398l-60 -967h-278z" />
    <glyph glyph-name="quotedbl" unicode="&#x22;" horiz-adv-x="833" 
d="M61 1464h322l-23 -618h-247zM455 1464h323l-51 -618h-248z" />
    <glyph glyph-name="numbersign" unicode="#" horiz-adv-x="1579" 
d="M-10 362l73 263h216l57 198h-219l71 262h220l98 349h379l-99 -349h205l99 349h380l-98 -349h221l-71 -262h-222l-57 -198h225l-71 -263h-226l-102 -362h-381l100 362h-200l-101 -362h-383l103 362h-217zM657 625h205l58 198h-203z" />
    <glyph glyph-name="dollar" unicode="$" horiz-adv-x="1150" 
d="M-20 266l247 193q88 -147 246 -170v266l-22 6q-443 100 -443 455q0 180 119.5 292.5t345.5 127.5v133h170v-137q305 -29 434 -256l-254 -177q-41 56 -82.5 88.5t-97.5 45.5v-273l41 -10q126 -29 213.5 -70.5t136 -95.5t69.5 -114t21 -136q0 -195 -122 -307t-359 -127
v-127h-170v127q-344 20 -493 266zM356 1030q0 -45 28.5 -74.5t88.5 -50.5v234q-117 -16 -117 -109zM643 289q119 21 119 112q0 37 -27 63.5t-92 49.5v-225z" />
    <glyph glyph-name="percent" unicode="%" horiz-adv-x="2101" 
d="M29 1016q0 226 98 337t309 111q210 0 309 -111.5t99 -336.5q0 -226 -98.5 -336.5t-309.5 -110.5t-309 111t-98 336zM307 1018q0 -128 32 -182t97 -54t97 53.5t32 180.5q0 128 -32 181.5t-97 53.5t-97 -53t-32 -180zM520 0l721 1434h336l-717 -1434h-340zM1253 416
q0 226 98.5 337t309.5 111q210 0 308.5 -111t98.5 -337t-98 -336.5t-309 -110.5t-309.5 111t-98.5 336zM1532 418q0 -128 32 -182t97 -54t97 53.5t32 180.5q0 128 -32 181.5t-97 53.5t-97 -53t-32 -180z" />
    <glyph glyph-name="ampersand" unicode="&#x26;" horiz-adv-x="1441" 
d="M14 362q0 94 35.5 171.5t85.5 127t127 101.5q-129 179 -129 328q0 181 114.5 277.5t334.5 96.5q204 0 305.5 -81t101.5 -236q0 -133 -66.5 -234t-207.5 -196q119 -109 286 -225q112 198 109 505h315q0 -413 -159 -671q96 -64 178 -113l-172 -260q-181 110 -234 145
q-194 -129 -483 -129q-251 0 -396 98.5t-145 294.5zM346 399q0 -75 58 -120.5t171 -45.5q106 0 191 54q-208 154 -324 270q-47 -34 -71.5 -70.5t-24.5 -87.5zM442 1087q0 -77 76 -180q93 58 130.5 101t37.5 98q0 102 -117 102q-127 0 -127 -121z" />
    <glyph glyph-name="quotesingle" unicode="'" horiz-adv-x="440" 
d="M61 1464h322l-37 -618h-248z" />
    <glyph glyph-name="parenleft" unicode="(" horiz-adv-x="718" 
d="M33 573q0 868 624 914l43 -320q-87 -11 -148 -45t-106 -102t-66.5 -178.5t-21.5 -268.5q0 -159 21.5 -269.5t66.5 -178.5t106 -101.5t148 -43.5l-32 -322q-635 46 -635 915z" />
    <glyph glyph-name="parenright" unicode=")" horiz-adv-x="718" 
d="M18 -20q87 10 148 43.5t106 101.5t66.5 178.5t21.5 269.5q0 158 -21.5 268.5t-66.5 178.5t-106 102t-148 45l43 320q625 -46 625 -914q0 -869 -635 -915z" />
    <glyph glyph-name="asterisk" unicode="*" horiz-adv-x="858" 
d="M12 1032l74 268l195 -63l-15 227h314l-13 -227l197 63l74 -272l-185 -47l129 -158l-229 -182l-129 182l-129 -182l-227 182l129 158z" />
    <glyph glyph-name="plus" unicode="+" horiz-adv-x="974" 
d="M66 530v213h296v312h250v-312h297v-213h-297v-305h-250v305h-296z" />
    <glyph glyph-name="comma" unicode="," horiz-adv-x="514" 
d="M45 176q0 96 55 145.5t156 49.5q103 0 159 -58.5t56 -177.5q0 -185 -88.5 -304t-253.5 -159l-80 160q137 41 178 156q-90 6 -136 55t-46 133z" />
    <glyph glyph-name="hyphen" unicode="-" horiz-adv-x="950" 
d="M66 539v303h821v-303h-821z" />
    <glyph glyph-name="period" unicode="." horiz-adv-x="512" 
d="M47 176q0 96 54 145.5t155 49.5t155 -49.5t54 -145.5q0 -93 -54.5 -142.5t-154.5 -49.5q-101 0 -155 49t-54 143z" />
    <glyph glyph-name="slash" unicode="/" horiz-adv-x="1128" 
d="M-31 0l752 1434h438l-753 -1434h-437z" />
    <glyph glyph-name="zero" unicode="0" horiz-adv-x="1284" 
d="M41 614q0 321 155 483.5t445 162.5q291 0 446.5 -162.5t155.5 -483.5q0 -320 -157.5 -482.5t-444.5 -162.5q-290 0 -445 162t-155 483zM424 616q0 -182 53.5 -258.5t161.5 -76.5q110 0 164.5 76t54.5 257t-54 257.5t-163 76.5t-163 -75.5t-54 -256.5z" />
    <glyph glyph-name="one" unicode="1" horiz-adv-x="763" 
d="M-20 999l432 250h262v-1249h-398v778l-151 -94z" />
    <glyph glyph-name="two" unicode="2" horiz-adv-x="1107" 
d="M29 956q81 162 209 233t315 71q83 0 153.5 -11t134 -37.5t107.5 -67t70 -102.5t26 -141q0 -125 -70 -232.5t-218 -240.5l-168 -152l479 17v-293h-1010l-2 242l408 350q96 88 122 119q56 67 56 131q0 53 -35.5 78.5t-93.5 25.5q-76 0 -123 -35.5t-90 -117.5z" />
    <glyph glyph-name="three" unicode="3" horiz-adv-x="1163" 
d="M-8 61l276 179q54 -93 114 -132.5t148 -39.5q99 0 154 39t55 120q0 72 -50 107t-159 35h-145v284h145q179 0 179 140q0 74 -48.5 112.5t-138.5 38.5q-82 0 -130.5 -35.5t-92.5 -115.5l-276 151q84 168 216.5 242t327.5 74q258 0 396.5 -110.5t138.5 -301.5
q0 -209 -184 -320q102 -49 155 -125t53 -196q0 -205 -149.5 -325t-417.5 -120q-198 0 -337.5 70.5t-229.5 228.5z" />
    <glyph glyph-name="four" unicode="4" horiz-adv-x="1325" 
d="M31 74v272l397 883h389l-389 -828h365v502h370v-502h158v-327h-158v-279h-370v279h-762z" />
    <glyph glyph-name="five" unicode="5" horiz-adv-x="1187" 
d="M4 23l270 194q53 -81 119 -118.5t158 -37.5q106 0 164.5 52.5t58.5 142.5q0 98 -58 144t-157 46q-144 0 -219 -84l-260 121l63 746h971v-330h-659l-21 -211q98 49 238 49q227 0 360 -116t133 -345q0 -243 -153 -377.5t-432 -134.5q-405 0 -576 259z" />
    <glyph glyph-name="six" unicode="6" horiz-adv-x="1275" 
d="M45 711q0 366 161 559.5t490 193.5q189 0 327 -60.5t198 -180.5l-240 -209q-16 31 -34 54t-47 46t-72.5 35t-98.5 12q-157 0 -228 -102t-71 -328v-41q43 98 134.5 155.5t221.5 57.5q205 0 327 -115.5t122 -332.5q0 -220 -137.5 -353t-401.5 -133q-318 0 -484.5 184
t-166.5 558zM473 449q0 -81 50.5 -131t135.5 -50q91 0 143 47.5t52 133.5q0 83 -45.5 131.5t-138.5 48.5q-84 0 -140.5 -46.5t-56.5 -133.5z" />
    <glyph glyph-name="seven" unicode="7" horiz-adv-x="1128" 
d="M33 899v330h1081v-266q-105 -133 -174 -246t-125 -252.5t-82.5 -303.5t-27.5 -366h-441q0 335 121 616t328 488h-680z" />
    <glyph glyph-name="eight" unicode="8" horiz-adv-x="1247" 
d="M41 403q0 262 233 347q-180 94 -180 305t132.5 310t396.5 99q266 0 399 -99t133 -310q0 -210 -182 -305q233 -87 233 -347q0 -434 -583 -434q-287 0 -434.5 109t-147.5 325zM430 410q0 -81 52.5 -123.5t142.5 -42.5q89 0 140.5 42.5t51.5 123.5q0 77 -51 121t-137 44
q-92 0 -145.5 -44t-53.5 -121zM446 1032q0 -70 47.5 -109.5t131.5 -39.5q82 0 129 39.5t47 109.5t-46.5 110t-125.5 40q-86 0 -134.5 -39.5t-48.5 -110.5z" />
    <glyph glyph-name="nine" unicode="9" horiz-adv-x="1284" 
d="M45 -16l231 213q39 -61 111 -95t170 -34q157 0 229 100.5t72 323.5v38q-43 -102 -134 -161.5t-222 -59.5q-206 0 -328.5 120.5t-122.5 344.5q0 221 137.5 353.5t403.5 132.5q317 0 484 -184t167 -558q0 -366 -161.5 -560t-491.5 -194q-194 0 -337.5 55t-207.5 165z
M432 770q0 -83 44.5 -130.5t133.5 -47.5q84 0 140.5 47.5t56.5 134.5q0 80 -50.5 130t-135.5 50q-88 0 -138.5 -48.5t-50.5 -135.5z" />
    <glyph glyph-name="colon" unicode=":" horiz-adv-x="512" 
d="M47 176q0 96 54 145.5t155 49.5t155 -49.5t54 -145.5q0 -93 -54.5 -142.5t-154.5 -49.5q-101 0 -155 49t-54 143zM47 836q0 96 54 145t155 49t155 -49t54 -145q0 -93 -54.5 -143t-154.5 -50q-101 0 -155 49.5t-54 143.5z" />
    <glyph glyph-name="semicolon" unicode=";" horiz-adv-x="514" 
d="M41 176q0 96 55 145.5t156 49.5q103 0 159 -58.5t56 -177.5q0 -185 -88.5 -304t-253.5 -159l-80 160q137 41 178 156q-90 6 -136 55t-46 133zM43 836q0 96 54 145t155 49t155 -49t54 -145q0 -93 -54.5 -143t-154.5 -50q-101 0 -155 49.5t-54 143.5z" />
    <glyph glyph-name="less" unicode="&#x3c;" horiz-adv-x="899" 
d="M49 459v141l658 465l139 -182l-494 -348l500 -349l-145 -190z" />
    <glyph glyph-name="equal" unicode="=" horiz-adv-x="974" 
d="M66 371v213h843v-213h-843zM66 682v213h843v-213h-843z" />
    <glyph glyph-name="greater" unicode="&#x3e;" horiz-adv-x="899" 
d="M47 874l146 191l657 -463v-141l-657 -465l-140 182l494 348z" />
    <glyph glyph-name="question" unicode="?" horiz-adv-x="1005" 
d="M-39 1167q154 316 535 316q512 0 512 -432q0 -193 -100.5 -299.5t-270.5 -126.5l-14 -156h-293l-19 379h133q106 0 158.5 43.5t52.5 136.5q0 73 -52.5 117.5t-158.5 44.5q-86 0 -145 -39t-102 -135zM258 176q0 96 54 145.5t155 49.5t155 -49.5t54 -145.5
q0 -93 -54.5 -142.5t-154.5 -49.5q-101 0 -155 49t-54 143z" />
    <glyph glyph-name="at" unicode="@" horiz-adv-x="1486" 
d="M33 496q0 330 193 524t536 194q331 0 512.5 -184.5t181.5 -499.5q0 -181 -100 -280.5t-273 -99.5q-157 0 -223 106q-68 -123 -221 -123q-133 0 -211 91t-78 261q0 186 81 279.5t220 93.5q157 0 217 -115l19 95h211v-467q0 -86 80 -86q55 0 98 64t43 181q0 140 -42 249
t-118 177t-176 103t-221 35q-128 0 -235 -37.5t-186.5 -110t-124 -187.5t-44.5 -263q0 -149 44.5 -264t124 -187t186 -108.5t235.5 -36.5q307 0 467 178l84 -86q-192 -217 -551 -217q-228 0 -393.5 90.5t-250.5 252.5t-85 378zM604 492q0 -164 117 -164q55 0 86 42t31 124
q0 172 -117 172q-59 0 -88 -41t-29 -133z" />
    <glyph glyph-name="A" unicode="A" 
d="M0 0l477 1434h494l477 -1434h-422l-59 193h-500l-57 -193h-410zM557 500h320l-160 528z" />
    <glyph glyph-name="B" unicode="B" horiz-adv-x="1353" 
d="M90 0v1434h772q213 0 320.5 -104.5t107.5 -282.5q0 -99 -48.5 -177t-133.5 -118q109 -32 162 -124t53 -214q0 -206 -121 -310t-360 -104h-752zM489 295h283q74 0 111 37t37 104q0 62 -34.5 98.5t-101.5 36.5h-295v-276zM489 860h267q66 0 100.5 37.5t34.5 97.5
q0 64 -35.5 101t-95.5 37h-271v-273z" />
    <glyph glyph-name="C" unicode="C" horiz-adv-x="1376" 
d="M41 719q0 382 180 563.5t547 181.5q229 0 376 -84.5t216 -265.5l-332 -160q-44 96 -102.5 133t-163.5 37q-76 0 -130 -19.5t-94.5 -66t-60.5 -127.5t-20 -200q0 -116 20 -196.5t61 -127.5t96 -67.5t132 -20.5q199 0 272 184l336 -153q-154 -361 -622 -361
q-363 0 -537 185.5t-174 564.5z" />
    <glyph glyph-name="D" unicode="D" horiz-adv-x="1452" 
d="M90 0v1434h655q343 0 504.5 -172.5t161.5 -534.5q0 -727 -698 -727h-623zM504 328h176q154 0 234.5 91.5t80.5 301.5q0 385 -280 385h-211v-778z" />
    <glyph glyph-name="E" unicode="E" horiz-adv-x="1286" 
d="M90 0v1434h1133v-328h-729v-221h626v-322h-626v-244h749v-319h-1153z" />
    <glyph glyph-name="F" unicode="F" horiz-adv-x="1218" 
d="M90 0v1434h1112v-328h-698v-256h598v-338h-598v-512h-414z" />
    <glyph glyph-name="G" unicode="G" horiz-adv-x="1458" 
d="M41 719q0 381 180 563t547 182q224 0 367 -78t211 -247l-332 -168q-42 87 -97 120t-153 33q-157 0 -232 -92.5t-75 -316.5q0 -117 20 -198.5t61.5 -129.5t98 -69t135.5 -21q98 0 167.5 50.5t82.5 150.5h-250v303h621v-801h-281l-25 162q-57 -92 -157 -142.5t-238 -50.5
q-307 0 -479 189.5t-172 560.5z" />
    <glyph glyph-name="H" unicode="H" horiz-adv-x="1523" 
d="M90 0v1434h414v-545h516v545h414v-1434h-414v539h-516v-539h-414z" />
    <glyph glyph-name="I" unicode="I" horiz-adv-x="593" 
d="M90 0v1434h414v-1434h-414z" />
    <glyph glyph-name="J" unicode="J" horiz-adv-x="1077" 
d="M-27 111l162 280q50 -43 114.5 -66.5t127.5 -23.5q102 0 155.5 57t53.5 187v889h413v-893q0 -153 -44.5 -265t-127.5 -178.5t-191 -97.5t-245 -31q-111 0 -222 34.5t-196 107.5z" />
    <glyph glyph-name="K" unicode="K" horiz-adv-x="1433" 
d="M90 0v1434h414l-2 -611l473 611h485l-526 -635l514 -799h-498l-301 500l-145 -164v-336h-414z" />
    <glyph glyph-name="L" unicode="L" horiz-adv-x="1232" 
d="M90 0v1434h416v-1094h696v-340h-1112z" />
    <glyph glyph-name="M" unicode="M" horiz-adv-x="1888" 
d="M90 0v1434h442l408 -963l403 963h455v-1434h-387l19 825l-353 -825h-286l-345 791l17 -791h-373z" />
    <glyph glyph-name="N" unicode="N" horiz-adv-x="1517" 
d="M90 0v1434h307l650 -850l-9 850h389v-1434h-348l-610 782l10 -782h-389z" />
    <glyph glyph-name="O" unicode="O" horiz-adv-x="1525" 
d="M41 719q0 374 178 559.5t545 185.5q377 0 549 -184.5t172 -562.5q0 -375 -179 -561.5t-546 -186.5q-374 0 -546.5 186t-172.5 564zM457 715q0 -219 74 -314.5t229 -95.5q156 0 229.5 95t73.5 319q0 219 -73 313t-228 94q-158 0 -231.5 -94t-73.5 -317z" />
    <glyph glyph-name="P" unicode="P" horiz-adv-x="1351" 
d="M90 0v1434h727q247 0 378.5 -145t131.5 -388q0 -248 -150.5 -384t-408.5 -136h-264v-381h-414zM504 713h235q85 0 133 50.5t48 143.5q0 75 -45.5 127.5t-137.5 52.5h-233v-374z" />
    <glyph glyph-name="Q" unicode="Q" horiz-adv-x="1525" 
d="M41 719q0 374 178 559.5t545 185.5q377 0 549 -184.5t172 -562.5q0 -450 -258 -629l155 -264h-348l-94 158q-89 -13 -180 -13q-374 0 -546.5 186t-172.5 564zM457 711q0 -223 73 -319.5t226 -96.5l-125 213h352l37 -66q45 96 45 273q0 226 -74 324t-229 98
q-158 0 -231.5 -97.5t-73.5 -328.5z" />
    <glyph glyph-name="R" unicode="R" horiz-adv-x="1368" 
d="M90 0v1434h764q238 0 363.5 -133.5t125.5 -358.5q0 -151 -58 -260t-165 -168l234 -514h-453l-180 436h-225v-436h-406zM496 760h268q79 0 123.5 45t44.5 127q0 73 -39.5 119.5t-122.5 46.5h-274v-338z" />
    <glyph glyph-name="S" unicode="S" horiz-adv-x="1181" 
d="M-27 248l254 196q54 -95 133 -137.5t197 -42.5q221 0 221 123q0 44 -37 74.5t-131 54.5l-129 33q-125 32 -215.5 83t-141.5 115t-74 133t-23 148q0 198 145 317t422 119q193 0 329 -62.5t214 -209.5l-267 -188q-53 77 -117.5 113t-160.5 36q-101 0 -146 -31.5t-45 -83.5
q0 -50 44.5 -82t146.5 -57l123 -31q246 -61 349 -172t103 -270q0 -215 -156.5 -336t-453.5 -121q-92 0 -174.5 14t-161.5 45t-143 87t-105 133z" />
    <glyph glyph-name="T" unicode="T" horiz-adv-x="1280" 
d="M10 1106v328h1260v-328h-424v-1106h-412v1106h-424z" />
    <glyph glyph-name="U" unicode="U" horiz-adv-x="1476" 
d="M78 594v840h411v-863q0 -128 64.5 -195t185.5 -67t184.5 67t63.5 195v863h412v-840q0 -329 -167.5 -477t-490.5 -148q-330 0 -496.5 150t-166.5 475z" />
    <glyph glyph-name="V" unicode="V" 
d="M0 1434h430l299 -983l303 983h416l-485 -1434h-480z" />
    <glyph glyph-name="W" unicode="W" horiz-adv-x="2019" 
d="M0 1434h420l198 -869l220 867h352l217 -875l207 877h405l-401 -1434h-406l-206 858l-211 -858h-396z" />
    <glyph glyph-name="X" unicode="X" horiz-adv-x="1460" 
d="M0 0l479 721l-454 713h485l244 -447l239 447h445l-465 -703l487 -731h-487l-266 438l-263 -438h-444z" />
    <glyph glyph-name="Y" unicode="Y" horiz-adv-x="1441" 
d="M0 1434h459l276 -564l273 564h434l-514 -932v-502h-414v514z" />
    <glyph glyph-name="Z" unicode="Z" horiz-adv-x="1236" 
d="M12 0v246l680 866l-655 -8v330h1161v-242l-676 -870l695 8v-330h-1205z" />
    <glyph glyph-name="bracketleft" unicode="[" horiz-adv-x="700" 
d="M94 -356v1824h586v-284h-229v-1256h231v-284h-588z" />
    <glyph glyph-name="backslash" unicode="\" horiz-adv-x="1134" 
d="M-31 1434h434l752 -1434h-434z" />
    <glyph glyph-name="bracketright" unicode="]" horiz-adv-x="700" 
d="M18 -72h232v1256h-230v284h586v-1824h-588v284z" />
    <glyph glyph-name="asciicircum" unicode="^" horiz-adv-x="991" 
d="M14 731v8l301 695h361l301 -695v-8h-320l-170 432l-168 -432h-305z" />
    <glyph glyph-name="underscore" unicode="_" horiz-adv-x="909" 
d="M-47 0h1003v-299h-1003v299z" />
    <glyph glyph-name="grave" unicode="`" horiz-adv-x="1224" 
d="M219 1421v15h422l166 -279v-10h-309z" />
    <glyph glyph-name="a" unicode="a" horiz-adv-x="1224" 
d="M33 498q0 279 121 419t329 140q233 0 326 -170l29 141h317v-1028h-332l-24 154q-52 -90 -137.5 -137.5t-194.5 -47.5q-201 0 -317.5 136.5t-116.5 392.5zM414 510q0 -248 172 -248q84 0 132 63t48 187q0 132 -48 194t-132 62q-172 0 -172 -258z" />
    <glyph glyph-name="b" unicode="b" horiz-adv-x="1230" 
d="M70 0v1434h397v-539q107 162 321 162q192 0 301 -133t109 -389q0 -262 -119 -414t-344 -152q-235 0 -348 166l-20 -135h-297zM459 506q0 -125 47.5 -187.5t132.5 -62.5q180 0 180 252q0 256 -178 256q-182 0 -182 -258z" />
    <glyph glyph-name="c" unicode="c" horiz-adv-x="1034" 
d="M33 512q0 278 143.5 411.5t413.5 133.5q165 0 276 -55t178 -173l-270 -196q-30 62 -71.5 87t-104.5 25q-95 0 -140.5 -51.5t-45.5 -183.5q0 -121 42.5 -184.5t139.5 -63.5q147 0 192 119l269 -154q-137 -258 -484 -258q-255 0 -396.5 132t-141.5 411z" />
    <glyph glyph-name="d" unicode="d" horiz-adv-x="1232" 
d="M33 498q0 270 123.5 414.5t328.5 144.5q183 0 281 -125v502h397v-1434h-332l-20 150q-107 -181 -344 -181q-198 0 -316 136.5t-118 392.5zM414 510q0 -125 42.5 -186.5t131.5 -61.5q85 0 134.5 63t49.5 187q0 132 -49.5 194t-136.5 62q-172 0 -172 -258z" />
    <glyph glyph-name="e" unicode="e" horiz-adv-x="1122" 
d="M33 504q0 258 143.5 405.5t398.5 147.5q108 0 195 -27.5t146 -75t98.5 -115t57.5 -145.5t18 -168q0 -63 -9 -127h-671q25 -168 219 -168q148 0 209 107l229 -145q-64 -109 -187.5 -166.5t-289.5 -57.5q-259 0 -408 136t-149 399zM408 623h311q-5 78 -42 120.5t-104 42.5
q-68 0 -112 -42.5t-53 -120.5z" />
    <glyph glyph-name="f" unicode="f" horiz-adv-x="792" 
d="M2 741v287h145v55q0 212 113.5 318t306.5 106q78 0 156.5 -16.5t122.5 -50.5l-70 -244q-44 31 -112 31q-65 0 -96 -36t-31 -110v-53h256v-287h-256v-741h-390v741h-145z" />
    <glyph glyph-name="g" unicode="g" horiz-adv-x="1214" 
d="M33 535q0 254 120 388t324 134q225 0 320 -170l28 141h320v-878q0 -128 -45.5 -227t-127.5 -161.5t-192.5 -94.5t-244.5 -32q-337 0 -484 195l197 201q94 -125 268 -125q232 0 232 235v49q-93 -159 -297 -159q-192 0 -305 128t-113 376zM410 541q0 -234 170 -234
q78 0 125 61.5t47 174.5q0 106 -48 165.5t-124 59.5q-82 0 -126 -57.5t-44 -169.5z" />
    <glyph glyph-name="h" unicode="h" horiz-adv-x="1249" 
d="M70 0v1434h397v-588q54 101 144.5 156t203.5 55q184 0 276.5 -112t92.5 -298v-647h-398v506q0 114 -35 159.5t-112 45.5t-124 -53.5t-48 -157.5v-500h-397z" />
    <glyph glyph-name="i" unicode="i" horiz-adv-x="536" 
d="M49 1313q0 194 221 194q217 0 217 -194q0 -191 -217 -191q-221 0 -221 191zM70 0v1028h397v-1028h-397z" />
    <glyph glyph-name="j" unicode="j" horiz-adv-x="536" 
d="M-219 -311l63 239q13 -1 47.5 -11.5t55.5 -10.5q65 0 94 35t29 114v973h397v-983q0 -202 -118 -306t-318 -104q-148 0 -250 54zM49 1313q0 194 221 194q217 0 217 -194q0 -191 -217 -191q-221 0 -221 191z" />
    <glyph glyph-name="k" unicode="k" horiz-adv-x="1169" 
d="M70 0v1434h397l-12 -834l323 428h420l-375 -455l381 -573h-432l-207 319l-104 -118v-201h-391z" />
    <glyph glyph-name="l" unicode="l" horiz-adv-x="536" 
d="M70 0v1434h397v-1434h-397z" />
    <glyph glyph-name="m" unicode="m" horiz-adv-x="1882" 
d="M70 0v1028h323l33 -174q57 97 149.5 150t202.5 53q127 0 206 -63.5t110 -168.5q51 111 145.5 171.5t218.5 60.5q182 0 270.5 -110.5t88.5 -295.5v-651h-398v522q0 99 -28.5 143t-92.5 44q-70 0 -112.5 -49.5t-42.5 -147.5v-512h-398v520q0 99 -30.5 144t-96.5 45
q-68 0 -109 -49t-42 -148v-512h-397z" />
    <glyph glyph-name="n" unicode="n" horiz-adv-x="1249" 
d="M70 0v1028h325l31 -182q59 101 156 156t219 55q99 0 174 -30.5t120 -86.5t67 -129t22 -164v-647h-398v506q0 114 -35 159.5t-112 45.5t-124 -53.5t-48 -157.5v-500h-397z" />
    <glyph glyph-name="o" unicode="o" horiz-adv-x="1187" 
d="M33 514q0 272 146.5 407.5t414.5 135.5q283 0 422 -132.5t139 -410.5q0 -268 -142.5 -406.5t-418.5 -138.5q-561 0 -561 545zM406 512q0 -134 45 -195t143 -61q97 0 141.5 61.5t44.5 194.5q0 132 -43.5 192t-142.5 60q-100 0 -144 -60t-44 -192z" />
    <glyph glyph-name="p" unicode="p" horiz-adv-x="1230" 
d="M70 -344v1372h327l31 -176q57 98 152.5 151.5t203.5 53.5q200 0 307 -136t107 -389q0 -260 -119 -411.5t-350 -151.5q-169 0 -262 101v-414h-397zM459 506q0 -122 48.5 -186t129.5 -64q182 0 182 252q0 256 -180 256q-83 0 -131.5 -63t-48.5 -195z" />
    <glyph glyph-name="q" unicode="q" horiz-adv-x="1230" 
d="M33 496q0 279 123 420t331 141q230 0 328 -170l27 141h319v-1372h-397v446q-106 -133 -293 -133q-202 0 -320 136t-118 391zM414 512q0 -250 172 -250q86 0 136 63t50 187q0 132 -49.5 194t-136.5 62q-172 0 -172 -256z" />
    <glyph glyph-name="r" unicode="r" horiz-adv-x="806" 
d="M70 0v1028h325l33 -199q53 109 146 170.5t210 61.5l4 -377q-17 1 -32 1q-135 -1 -207 -77q-80 -86 -82 -241v-367h-397z" />
    <glyph glyph-name="s" unicode="s" horiz-adv-x="960" 
d="M-23 158l179 194q41 -57 125 -91t180 -34q119 0 119 52q0 25 -24 39t-83 28l-88 21q-346 84 -346 348q0 155 116 248.5t343 93.5q317 0 460 -185l-194 -200q-41 48 -106.5 78t-147.5 30q-113 0 -113 -53q0 -47 111 -70l117 -26q323 -74 323 -312q0 -70 -27 -130.5
t-82.5 -110.5t-153 -78.5t-226.5 -28.5q-169 0 -293.5 48t-188.5 139z" />
    <glyph glyph-name="t" unicode="t" horiz-adv-x="757" 
d="M66 354v961h389v-287h264v-287h-264v-348q0 -137 131 -137q70 0 127 29l51 -236q-126 -74 -295 -74q-403 0 -403 379z" />
    <glyph glyph-name="u" unicode="u" horiz-adv-x="1239" 
d="M66 360v668h397v-557q0 -97 34.5 -141.5t110.5 -44.5q70 0 117.5 54.5t48.5 154.5v534h395v-1028h-321l-31 170q-55 -97 -148 -149t-208 -52q-103 0 -180.5 30t-123.5 84t-68.5 123t-22.5 154z" />
    <glyph glyph-name="v" unicode="v" horiz-adv-x="1189" 
d="M0 1028h410l194 -616l180 616h406l-393 -1028h-406z" />
    <glyph glyph-name="w" unicode="w" horiz-adv-x="1660" 
d="M0 1028h373l145 -549l160 547h309l164 -551l137 553h365l-316 -1028h-352l-158 569l-155 -569h-350z" />
    <glyph glyph-name="x" unicode="x" horiz-adv-x="1206" 
d="M0 0l371 520l-346 508h448l150 -270l145 270h414l-342 -516l366 -512h-450l-168 270l-174 -270h-414z" />
    <glyph glyph-name="y" unicode="y" horiz-adv-x="1198" 
d="M0 1028h410l196 -600l185 600h407l-436 -1126q-39 -98 -107 -159t-151 -84.5t-193 -23.5q-141 0 -248 46l35 264q73 -37 152 -37q106 0 151 86z" />
    <glyph glyph-name="z" unicode="z" horiz-adv-x="1001" 
d="M18 0v217l451 524h-442v287h923v-229l-444 -514h463v-285h-951z" />
    <glyph glyph-name="braceleft" unicode="{" horiz-adv-x="780" 
d="M0 434v283h43q221 0 221 168q0 42 -7 126.5t-7 133.5q0 160 130 250.5t335 95.5l47 -311q-91 2 -139 -41.5t-48 -126.5q0 -36 7.5 -104t7.5 -107q0 -145 -168 -226q168 -84 168 -225q0 -37 -7.5 -106t-7.5 -105q0 -83 48 -126.5t139 -41.5l-47 -311q-205 5 -335 95.5
t-130 250.5q0 49 7 133.5t7 126.5q0 87 -55.5 127.5t-165.5 40.5h-43z" />
    <glyph glyph-name="bar" unicode="|" horiz-adv-x="557" 
d="M100 -133v1702h359v-1702h-359z" />
    <glyph glyph-name="braceright" unicode="}" horiz-adv-x="780" 
d="M18 -29q91 -2 139 41.5t48 126.5q0 36 -7.5 105t-7.5 106q0 141 168 225q-168 81 -168 226q0 39 7.5 107t7.5 104q0 83 -48 126.5t-139 41.5l48 311q205 -5 334.5 -95.5t129.5 -250.5q0 -49 -7 -133.5t-7 -126.5q0 -168 221 -168h43v-283h-43q-110 0 -165.5 -40.5
t-55.5 -127.5q0 -42 7 -126.5t7 -133.5q0 -160 -129.5 -250.5t-334.5 -95.5z" />
    <glyph glyph-name="asciitilde" unicode="~" horiz-adv-x="1105" 
d="M14 532q12 168 101 258.5t229 90.5q54 0 112.5 -16t100 -35.5t91 -35.5t87.5 -16q84 0 92 103l265 -43q-12 -168 -100.5 -258.5t-227.5 -90.5q-54 0 -112.5 16t-101 35.5t-92 35.5t-87.5 16q-84 0 -92 -103z" />
    <glyph glyph-name="uni00A0" unicode="&#xa0;" horiz-adv-x="409" 
 />
    <glyph glyph-name="exclamdown" unicode="&#xa1;" horiz-adv-x="509" 
d="M45 872q0 93 54.5 143t154.5 50q102 0 155.5 -49t53.5 -144q0 -96 -53.5 -145t-155.5 -49q-101 0 -155 49t-54 145zM55 -387l60 967h278l60 -967h-398z" />
    <glyph glyph-name="cent" unicode="&#xa2;" horiz-adv-x="1003" 
d="M29 526q0 486 452 527v135h172v-135q251 -27 357 -228l-238 -161q-46 78 -119 96v-469q88 21 125 106l246 -131q-53 -111 -148 -175.5t-223 -82.5v-135h-172v133q-452 36 -452 520zM367 522q0 -98 27.5 -153t86.5 -74v461q-61 -19 -87.5 -74.5t-26.5 -159.5z" />
    <glyph glyph-name="sterling" unicode="&#xa3;" horiz-adv-x="1232" 
d="M27 0v313h61q44 0 62.5 41.5t15.5 130.5l-4 88h-135v244h127l-7 162q-3 113 28 199.5t84 139.5t128.5 87t152.5 46.5t165 12.5q193 0 310 -67t204 -232l-269 -188q-43 82 -94.5 122t-132.5 40q-97 0 -140 -52t-38 -153l4 -117h299v-244h-285l2 -92q2 -41 -3.5 -93.5
t-18.5 -76.5h268q162 0 281 119l170 -246q-85 -106 -193.5 -145t-263.5 -39h-778z" />
    <glyph glyph-name="yen" unicode="&#xa5;" horiz-adv-x="1441" 
d="M0 1434h459l276 -564l273 564h434l-318 -574h154v-180h-254l-45 -82h299v-180h-348v-418h-416v418h-344v180h297l-47 82h-250v180h152z" />
    <glyph glyph-name="brokenbar" unicode="&#xa6;" horiz-adv-x="557" 
d="M100 -133v788h359v-788h-359zM100 780v789h359v-789h-359z" />
    <glyph glyph-name="section" unicode="&#xa7;" horiz-adv-x="942" 
d="M10 96l185 180q45 -54 103.5 -82t145.5 -28q140 0 140 80q0 34 -32.5 54t-100.5 34l-68 16q-350 85 -350 344q0 149 117 219q-99 81 -99 213q0 154 110.5 246t323.5 92q275 0 400 -159l-180 -185q-95 92 -216 92q-124 0 -124 -79q0 -57 118 -86l109 -25
q170 -38 251 -118.5t81 -211.5q0 -146 -119 -217q108 -77 108 -215q0 -55 -14.5 -103t-48.5 -91.5t-86 -74.5t-131.5 -49t-179.5 -18q-313 0 -443 172zM328 709q0 -81 129 -109l28 -6q65 -14 100.5 9.5t35.5 66.5q0 41 -30.5 67t-98.5 41l-29 6q-65 14 -100 -9t-35 -66z" />
    <glyph glyph-name="dieresis" unicode="&#xa8;" horiz-adv-x="1243" 
d="M205 1309q0 170 194 170q195 0 195 -170q0 -172 -195 -172q-194 0 -194 172zM674 1309q0 170 196 170q195 0 195 -170q0 -172 -195 -172q-196 0 -196 172z" />
    <glyph glyph-name="copyright" unicode="&#xa9;" horiz-adv-x="1517" 
d="M33 717q0 327 192.5 521t532.5 194q339 0 532 -194.5t193 -520.5q0 -215 -85 -376.5t-250 -251t-390 -89.5q-340 0 -532.5 195t-192.5 522zM158 717q0 -150 44 -265.5t125 -188t189.5 -109.5t241.5 -37t241.5 37t189.5 109.5t125 188t44 265.5t-44.5 266t-125 189
t-189 110t-241.5 37t-241.5 -37t-189 -110t-125 -189t-44.5 -266zM367 725q0 212 103.5 314t309.5 102q243 0 336 -170l-196 -144q-41 91 -138 91q-80 0 -115.5 -46t-35.5 -149q0 -99 37 -143.5t114 -44.5q53 0 92 23t56 67l194 -113q-100 -195 -352 -195q-405 0 -405 408z
" />
    <glyph glyph-name="ordfeminine" unicode="&#xaa;" horiz-adv-x="937" 
d="M55 1065q0 200 86.5 299.5t235.5 99.5q167 0 233 -121l21 99h229v-731h-239l-17 106q-78 -129 -237 -129q-143 0 -227.5 97.5t-84.5 279.5zM330 1075q0 -174 123 -174q59 0 93 44.5t34 129.5q0 180 -129 180q-121 0 -121 -180z" />
    <glyph glyph-name="guillemotleft" unicode="&#xab;" horiz-adv-x="1411" 
d="M47 510v6l404 512h380l-407 -510l416 -518h-387zM571 516v6l406 506h381l-410 -504l432 -524h-387z" />
    <glyph glyph-name="uni00AD" unicode="&#xad;" horiz-adv-x="950" 
d="M66 539v303h821v-303h-821z" />
    <glyph glyph-name="registered" unicode="&#xae;" horiz-adv-x="866" 
d="M29 1067q0 183 106.5 290t298.5 107q190 0 297 -107t107 -290q0 -181 -107 -289t-297 -108q-191 0 -298 108t-107 289zM109 1067q0 -159 89.5 -244.5t235.5 -85.5q145 0 234.5 85.5t89.5 244.5t-89.5 244.5t-234.5 85.5q-146 0 -235.5 -85.5t-89.5 -244.5zM260 879v393
h207q69 0 106 -39.5t37 -108.5q0 -78 -59 -118l65 -127h-131l-47 100h-57v-100h-121zM381 1081h49q62 0 62 47q0 43 -56 43h-55v-90z" />
    <glyph glyph-name="macron" unicode="&#xaf;" horiz-adv-x="1189" 
d="M272 1176v206h627v-206h-627z" />
    <glyph glyph-name="degree" unicode="&#xb0;" horiz-adv-x="870" 
d="M57 1090q0 172 100 273t279 101q178 0 278.5 -101t100.5 -273q0 -170 -101 -272.5t-278 -102.5q-179 0 -279 102.5t-100 272.5zM281 1090q0 -84 42 -128t113 -44q70 0 113 44.5t43 127.5q0 84 -43 129t-113 45q-71 0 -113 -45t-42 -129z" />
    <glyph glyph-name="plusminus" unicode="&#xb1;" horiz-adv-x="974" 
d="M66 0v213h843v-213h-843zM66 573v213h296v269h250v-269h297v-213h-297v-260h-250v260h-296z" />
    <glyph glyph-name="uni00B2" unicode="&#xb2;" horiz-adv-x="751" 
d="M-12 1272q61 105 151.5 148.5t222.5 43.5q71 0 129.5 -12.5t108 -40t77.5 -78.5t28 -121q0 -87 -45 -160.5t-132 -148.5l-96 -86l303 8v-223h-710v180l288 242q36 32 54 50.5t34.5 46t16.5 53.5q0 69 -90 69q-55 0 -88.5 -23t-67.5 -77z" />
    <glyph glyph-name="uni00B3" unicode="&#xb3;" horiz-adv-x="747" 
d="M-4 754l194 120q31 -52 65 -71t87 -19q102 0 102 70q0 66 -114 66h-78v186h78q96 0 96 72q0 67 -94 67q-46 0 -73.5 -19.5t-51.5 -64.5l-197 107q57 105 141.5 150.5t210.5 45.5q167 0 256 -67.5t89 -184.5q0 -120 -113 -188q62 -32 93.5 -74.5t31.5 -111.5
q0 -123 -96.5 -194t-264.5 -71q-254 0 -362 181z" />
    <glyph glyph-name="acute" unicode="&#xb4;" horiz-adv-x="1220" 
d="M408 1147v10l172 279h407v-15l-278 -274h-301z" />
    <glyph glyph-name="paragraph" unicode="&#xb6;" horiz-adv-x="1329" 
d="M25 901q0 236 141.5 384.5t382.5 148.5h690v-1434h-297v381h-108v-381h-291v383q-230 15 -374 152.5t-144 365.5zM367 907q0 -95 49.5 -156t126.5 -61v414q-81 0 -128.5 -58.5t-47.5 -138.5zM834 684h108v426h-108v-426z" />
    <glyph glyph-name="periodcentered" unicode="&#xb7;" horiz-adv-x="512" 
d="M47 694q0 96 54 145.5t155 49.5t155 -49.5t54 -145.5q0 -93 -54.5 -142.5t-154.5 -49.5q-101 0 -155 49t-54 143z" />
    <glyph glyph-name="cedilla" unicode="&#xb8;" horiz-adv-x="1204" 
d="M332 -377l123 127q69 -98 176 -98q43 0 69.5 18t26.5 54q0 30 -28 49.5t-78 19.5l-48 -6l-55 31l66 182h184l-39 -92h2q94 -8 158.5 -59t64.5 -138q0 -116 -88 -177.5t-221 -61.5q-102 0 -184.5 38.5t-128.5 112.5z" />
    <glyph glyph-name="uni00B9" unicode="&#xb9;" horiz-adv-x="520" 
d="M-23 1303l283 149h186v-850h-282v539l-84 -47z" />
    <glyph glyph-name="ordmasculine" unicode="&#xba;" horiz-adv-x="888" 
d="M55 1077q0 193 105.5 290t296.5 97q202 0 301.5 -94.5t99.5 -292.5q0 -192 -102 -290.5t-299 -98.5q-402 0 -402 389zM330 1077q0 -91 29.5 -133.5t95.5 -42.5t97.5 42.5t31.5 133.5q0 90 -30.5 132t-98.5 42q-67 0 -96 -42t-29 -132z" />
    <glyph glyph-name="guillemotright" unicode="&#xbb;" horiz-adv-x="1411" 
d="M31 1028h387l422 -516v-6l-406 -506h-381l410 504zM571 1028h387l406 -510v-6l-403 -512h-381l407 510z" />
    <glyph glyph-name="onequarter" unicode="&#xbc;" horiz-adv-x="1781" 
d="M-23 1300l283 150h186v-850h-282v539l-84 -47zM266 0l721 1434h336l-717 -1434h-340zM961 150v182l239 506h275l-234 -467h189v245h264v-245h86v-221h-86v-150h-264v150h-469z" />
    <glyph glyph-name="onehalf" unicode="&#xbd;" horiz-adv-x="1830" 
d="M-23 1300l283 150h186v-850h-282v539l-84 -47zM266 0l721 1434h336l-717 -1434h-340zM1065 670q61 105 152 148.5t223 43.5q71 0 129 -12.5t108 -40t77.5 -78.5t27.5 -121q0 -87 -45 -160.5t-131 -148.5l-97 -86l303 8v-223h-710v180l289 242q36 32 54 50.5t34 45.5
t16 53q0 70 -90 70q-55 0 -88.5 -23t-67.5 -77z" />
    <glyph glyph-name="threequarters" unicode="&#xbe;" horiz-adv-x="1968" 
d="M-4 752l194 120q31 -52 65 -71t87 -19q102 0 102 70q0 66 -114 66h-78v186h78q96 0 96 72q0 67 -94 67q-46 0 -73.5 -19.5t-51.5 -64.5l-197 107q57 105 141.5 150.5t210.5 45.5q167 0 256 -67.5t89 -184.5q0 -120 -113 -188q62 -32 93.5 -74.5t31.5 -111.5
q0 -123 -96.5 -194t-264.5 -71q-254 0 -362 181zM449 0l720 1434h336l-717 -1434h-339zM1147 150v182l239 506h275l-234 -467h189v245h264v-245h86v-221h-86v-150h-264v150h-469z" />
    <glyph glyph-name="questiondown" unicode="&#xbf;" horiz-adv-x="1005" 
d="M25 -4q0 193 100 299.5t270 126.5l15 156h292l19 -379h-133q-211 0 -211 -181q0 -73 52.5 -117t158.5 -44q86 0 146 39t102 135l235 -152q-154 -315 -534 -315q-512 0 -512 432zM356 870q0 93 54.5 143t154.5 50q101 0 155 -49.5t54 -143.5q0 -96 -54 -145t-155 -49
t-155 49t-54 145z" />
    <glyph glyph-name="Agrave" unicode="&#xc0;" 
d="M0 0l477 1434h494l477 -1434h-422l-59 193h-500l-57 -193h-410zM317 1829v14h422l166 -278v-11h-309zM557 500h320l-160 528z" />
    <glyph glyph-name="Aacute" unicode="&#xc1;" 
d="M0 0l477 1434h494l477 -1434h-422l-59 193h-500l-57 -193h-410zM543 1552v11l172 278h407v-14l-278 -275h-301zM557 500h320l-160 528z" />
    <glyph glyph-name="Acircumflex" unicode="&#xc2;" 
d="M0 0l477 1434h494l477 -1434h-422l-59 193h-500l-57 -193h-410zM311 1552v9l254 280h318l256 -280v-9h-305l-119 107l-115 -107h-289zM557 500h320l-160 528z" />
    <glyph glyph-name="Atilde" unicode="&#xc3;" 
d="M0 0l477 1434h494l477 -1434h-422l-59 193h-500l-57 -193h-410zM326 1561q-5 74 12.5 129t51.5 85t74 44t85 14q69 0 163 -32t128 -32t45.5 17.5t11.5 48.5h223q6 -74 -12 -129t-52.5 -85t-74 -44t-84.5 -14q-69 0 -163 31.5t-128 31.5q-57 0 -57 -65h-223zM557 500h320
l-160 528z" />
    <glyph glyph-name="Adieresis" unicode="&#xc4;" 
d="M0 0l477 1434h494l477 -1434h-422l-59 193h-500l-57 -193h-410zM293 1714q0 170 194 170q195 0 195 -170q0 -172 -195 -172q-194 0 -194 172zM557 500h320l-160 528zM762 1714q0 170 196 170q195 0 195 -170q0 -172 -195 -172q-196 0 -196 172z" />
    <glyph glyph-name="Aring" unicode="&#xc5;" 
d="M0 0l477 1434h494l477 -1434h-422l-59 193h-500l-57 -193h-410zM469 1735q0 105 70.5 163t183.5 58q112 0 182 -58.5t70 -162.5q0 -107 -70 -165.5t-184 -58.5q-113 0 -182.5 58.5t-69.5 165.5zM557 500h320l-160 528zM633 1735q0 -41 24.5 -64.5t63.5 -23.5
q40 0 65 23.5t25 64.5q0 39 -24.5 61.5t-63.5 22.5q-40 0 -65 -22.5t-25 -61.5z" />
    <glyph glyph-name="AE" unicode="&#xc6;" horiz-adv-x="2070" 
d="M0 0l508 1434h1499v-328h-907l74 -221h729v-322h-621l80 -244h666v-319h-988l-59 193h-518l-62 -193h-401zM561 500h326l-162 512z" />
    <glyph glyph-name="Ccedilla" unicode="&#xc7;" horiz-adv-x="1376" 
d="M41 719q0 382 180 563.5t547 181.5q229 0 376 -84.5t216 -265.5l-332 -160q-44 96 -102.5 133t-163.5 37q-76 0 -130 -19.5t-94.5 -66t-60.5 -127.5t-20 -200q0 -116 20 -196.5t61 -127.5t96 -67.5t132 -20.5q199 0 272 184l336 -153q-135 -316 -508 -355l-28 -67h2
q94 -8 158.5 -59t64.5 -138q0 -116 -88 -177.5t-221 -61.5q-102 0 -185 38.5t-129 112.5l123 127q69 -98 176 -98q43 0 70 18t27 54q0 30 -28.5 49.5t-78.5 19.5q-7 0 -15 -1t-17.5 -2.5t-14.5 -2.5l-55 31l55 153q-327 17 -484 202.5t-157 545.5z" />
    <glyph glyph-name="Egrave" unicode="&#xc8;" horiz-adv-x="1286" 
d="M90 0v1434h1133v-328h-729v-221h626v-322h-626v-244h749v-319h-1153zM266 1829v14h422l166 -278v-11h-309z" />
    <glyph glyph-name="Eacute" unicode="&#xc9;" horiz-adv-x="1286" 
d="M90 0v1434h1133v-328h-729v-221h626v-322h-626v-244h749v-319h-1153zM492 1552v11l172 278h407v-14l-278 -275h-301z" />
    <glyph glyph-name="Ecircumflex" unicode="&#xca;" horiz-adv-x="1286" 
d="M90 0v1434h1133v-328h-729v-221h626v-322h-626v-244h749v-319h-1153zM260 1552v9l254 280h317l256 -280v-9h-305l-118 107l-115 -107h-289z" />
    <glyph glyph-name="Edieresis" unicode="&#xcb;" horiz-adv-x="1286" 
d="M90 0v1434h1133v-328h-729v-221h626v-322h-626v-244h749v-319h-1153zM242 1714q0 170 194 170q195 0 195 -170q0 -172 -195 -172q-194 0 -194 172zM711 1714q0 170 196 170q195 0 195 -170q0 -172 -195 -172q-196 0 -196 172z" />
    <glyph glyph-name="Igrave" unicode="&#xcc;" horiz-adv-x="593" 
d="M-106 1829v14h421l166 -278v-11h-309zM90 0v1434h414v-1434h-414z" />
    <glyph glyph-name="Iacute" unicode="&#xcd;" horiz-adv-x="593" 
d="M90 0v1434h414v-1434h-414zM119 1552v11l172 278h407v-14l-278 -275h-301z" />
    <glyph glyph-name="Icircumflex" unicode="&#xce;" horiz-adv-x="593" 
d="M-113 1552v9l254 280h318l256 -280v-9h-305l-119 107l-115 -107h-289zM90 0v1434h414v-1434h-414z" />
    <glyph glyph-name="Idieresis" unicode="&#xcf;" horiz-adv-x="593" 
d="M-131 1714q0 170 194 170q195 0 195 -170q0 -172 -195 -172q-194 0 -194 172zM90 0v1434h414v-1434h-414zM338 1714q0 170 197 170q194 0 194 -170q0 -172 -194 -172q-197 0 -197 172z" />
    <glyph glyph-name="Eth" unicode="&#xd0;" horiz-adv-x="1517" 
d="M23 553v303h137v578h653q344 0 505 -172.5t161 -534.5q0 -727 -699 -727h-620v553h-137zM571 328h177q154 0 235.5 92t81.5 301q0 385 -283 385h-211v-250h207v-303h-207v-225z" />
    <glyph glyph-name="Ntilde" unicode="&#xd1;" horiz-adv-x="1517" 
d="M90 0v1434h307l650 -850l-9 850h389v-1434h-348l-610 782l10 -782h-389zM360 1561q-5 74 13 129t52 85t74 44t85 14q69 0 162.5 -32t127.5 -32q58 0 58 66h223q6 -74 -12 -129t-52.5 -85t-74 -44t-84.5 -14q-69 0 -163 31.5t-128 31.5q-57 0 -57 -65h-224z" />
    <glyph glyph-name="Ograve" unicode="&#xd2;" horiz-adv-x="1525" 
d="M41 719q0 374 178 559.5t545 185.5q377 0 549 -184.5t172 -562.5q0 -375 -179 -561.5t-546 -186.5q-374 0 -546.5 186t-172.5 564zM348 1829v14h422l166 -278v-11h-309zM457 715q0 -219 74 -314.5t229 -95.5q156 0 229.5 95t73.5 319q0 219 -73 313t-228 94
q-158 0 -231.5 -94t-73.5 -317z" />
    <glyph glyph-name="Oacute" unicode="&#xd3;" horiz-adv-x="1525" 
d="M41 719q0 374 178 559.5t545 185.5q377 0 549 -184.5t172 -562.5q0 -375 -179 -561.5t-546 -186.5q-374 0 -546.5 186t-172.5 564zM457 715q0 -219 74 -314.5t229 -95.5q156 0 229.5 95t73.5 319q0 219 -73 313t-228 94q-158 0 -231.5 -94t-73.5 -317zM573 1552v11
l172 278h408v-14l-279 -275h-301z" />
    <glyph glyph-name="Ocircumflex" unicode="&#xd4;" horiz-adv-x="1525" 
d="M41 719q0 374 178 559.5t545 185.5q377 0 549 -184.5t172 -562.5q0 -375 -179 -561.5t-546 -186.5q-374 0 -546.5 186t-172.5 564zM342 1552v9l254 280h317l256 -280v-9h-305l-119 107l-114 -107h-289zM457 715q0 -219 74 -314.5t229 -95.5q156 0 229.5 95t73.5 319
q0 219 -73 313t-228 94q-158 0 -231.5 -94t-73.5 -317z" />
    <glyph glyph-name="Otilde" unicode="&#xd5;" horiz-adv-x="1525" 
d="M41 719q0 374 178 559.5t545 185.5q377 0 549 -184.5t172 -562.5q0 -375 -179 -561.5t-546 -186.5q-374 0 -546.5 186t-172.5 564zM356 1561q-5 74 13 129t52 85t74 44t85 14q69 0 162.5 -32t127.5 -32q58 0 58 66h223q6 -74 -12 -129t-52.5 -85t-74 -44t-84.5 -14
q-69 0 -163 31.5t-128 31.5q-57 0 -57 -65h-224zM457 715q0 -219 74 -314.5t229 -95.5q156 0 229.5 95t73.5 319q0 219 -73 313t-228 94q-158 0 -231.5 -94t-73.5 -317z" />
    <glyph glyph-name="Odieresis" unicode="&#xd6;" horiz-adv-x="1525" 
d="M41 719q0 374 178 559.5t545 185.5q377 0 549 -184.5t172 -562.5q0 -375 -179 -561.5t-546 -186.5q-374 0 -546.5 186t-172.5 564zM324 1714q0 170 194 170q195 0 195 -170q0 -172 -195 -172q-194 0 -194 172zM457 715q0 -219 74 -314.5t229 -95.5q156 0 229.5 95
t73.5 319q0 219 -73 313t-228 94q-158 0 -231.5 -94t-73.5 -317zM793 1714q0 170 196 170q195 0 195 -170q0 -172 -195 -172q-196 0 -196 172z" />
    <glyph glyph-name="multiply" unicode="&#xd7;" horiz-adv-x="983" 
d="M88 883l158 159l248 -247l245 245l148 -149l-246 -244l252 -252l-160 -159l-250 251l-243 -243l-148 149l242 242z" />
    <glyph glyph-name="Oslash" unicode="&#xd8;" horiz-adv-x="1523" 
d="M8 0l174 199q-141 183 -141 518q0 374 178 560.5t545 186.5q270 0 434 -102l64 72h260l-176 -203q139 -185 139 -514q0 -378 -175.5 -563t-539.5 -185q-278 0 -444 103l-62 -72h-256zM457 717q0 -109 20 -176l467 532q-67 53 -182 53q-158 0 -231.5 -93t-73.5 -316z
M573 358q64 -53 189 -53q156 0 228.5 93t72.5 321q0 100 -19 174z" />
    <glyph glyph-name="Ugrave" unicode="&#xd9;" horiz-adv-x="1476" 
d="M78 594v840h411v-863q0 -128 64.5 -195t185.5 -67t184.5 67t63.5 195v863h412v-840q0 -329 -167.5 -477t-490.5 -148q-330 0 -496.5 150t-166.5 475zM334 1829v14h422l166 -278v-11h-310z" />
    <glyph glyph-name="Uacute" unicode="&#xda;" horiz-adv-x="1476" 
d="M78 594v840h411v-863q0 -128 64.5 -195t185.5 -67t184.5 67t63.5 195v863h412v-840q0 -329 -167.5 -477t-490.5 -148q-330 0 -496.5 150t-166.5 475zM559 1552v11l172 278h408v-14l-279 -275h-301z" />
    <glyph glyph-name="Ucircumflex" unicode="&#xdb;" horiz-adv-x="1476" 
d="M78 594v840h411v-863q0 -128 64.5 -195t185.5 -67t184.5 67t63.5 195v863h412v-840q0 -329 -167.5 -477t-490.5 -148q-330 0 -496.5 150t-166.5 475zM328 1552v9l254 280h317l256 -280v-9h-305l-119 107l-115 -107h-288z" />
    <glyph glyph-name="Udieresis" unicode="&#xdc;" horiz-adv-x="1476" 
d="M78 594v840h411v-863q0 -128 64.5 -195t185.5 -67t184.5 67t63.5 195v863h412v-840q0 -329 -167.5 -477t-490.5 -148q-330 0 -496.5 150t-166.5 475zM309 1714q0 170 195 170q194 0 194 -170q0 -172 -194 -172q-195 0 -195 172zM778 1714q0 170 197 170q194 0 194 -170
q0 -172 -194 -172q-197 0 -197 172z" />
    <glyph glyph-name="Yacute" unicode="&#xdd;" horiz-adv-x="1441" 
d="M0 1434h459l276 -564l273 564h434l-514 -932v-502h-414v514zM541 1552v11l172 278h407v-14l-278 -275h-301z" />
    <glyph glyph-name="Thorn" unicode="&#xde;" horiz-adv-x="1339" 
d="M90 0v1434h414v-197h311q243 0 371.5 -141.5t128.5 -380.5q0 -242 -149.5 -376t-401.5 -134h-260v-205h-414zM504 537h233q80 0 125 47.5t45 134.5q0 72 -42.5 122t-129.5 50h-231v-354z" />
    <glyph glyph-name="germandbls" unicode="&#xdf;" horiz-adv-x="1316" 
d="M70 0v985q0 245 150 378.5t442 133.5q148 0 257.5 -31.5t173 -88t94 -127.5t30.5 -158q0 -209 -175 -308q122 -38 182 -135.5t60 -230.5q0 -206 -134 -320t-351 -114q-149 0 -230 36l27 273q50 -23 113 -23q86 0 140 43.5t54 126.5q0 78 -52 120t-142 42h-109v295h80
q77 0 122.5 42t45.5 110q0 73 -51 111t-133 38q-101 0 -153 -55.5t-52 -161.5v-981h-389z" />
    <glyph glyph-name="agrave" unicode="&#xe0;" horiz-adv-x="1224" 
d="M33 498q0 279 121 419t329 140q233 0 326 -170l29 141h317v-1028h-332l-24 154q-52 -90 -137.5 -137.5t-194.5 -47.5q-201 0 -317.5 136.5t-116.5 392.5zM184 1423v15h422l166 -279v-10h-309zM414 510q0 -248 172 -248q84 0 132 63t48 187q0 132 -48 194t-132 62
q-172 0 -172 -258z" />
    <glyph glyph-name="aacute" unicode="&#xe1;" horiz-adv-x="1224" 
d="M33 498q0 279 121 419t329 140q233 0 326 -170l29 141h317v-1028h-332l-24 154q-52 -90 -137.5 -137.5t-194.5 -47.5q-201 0 -317.5 136.5t-116.5 392.5zM410 1147v10l172 279h407v-15l-278 -274h-301zM414 510q0 -248 172 -248q84 0 132 63t48 187q0 132 -48 194
t-132 62q-172 0 -172 -258z" />
    <glyph glyph-name="acircumflex" unicode="&#xe2;" horiz-adv-x="1224" 
d="M33 498q0 279 121 419t329 140q233 0 326 -170l29 141h317v-1028h-332l-24 154q-52 -90 -137.5 -137.5t-194.5 -47.5q-201 0 -317.5 136.5t-116.5 392.5zM178 1147v8l254 281h318l256 -281v-8h-306l-118 106l-115 -106h-289zM414 510q0 -248 172 -248q84 0 132 63t48 187
q0 132 -48 194t-132 62q-172 0 -172 -258z" />
    <glyph glyph-name="atilde" unicode="&#xe3;" horiz-adv-x="1224" 
d="M33 498q0 279 121 419t329 140q233 0 326 -170l29 141h317v-1028h-332l-24 154q-52 -90 -137.5 -137.5t-194.5 -47.5q-201 0 -317.5 136.5t-116.5 392.5zM193 1155q-5 74 12.5 129t51.5 85t74 44t85 14q69 0 163 -31.5t128 -31.5t45.5 17.5t11.5 48.5h223
q6 -74 -12 -129.5t-52.5 -85.5t-74 -44t-84.5 -14q-69 0 -163 32t-128 32q-57 0 -57 -66h-223zM414 510q0 -248 172 -248q84 0 132 63t48 187q0 132 -48 194t-132 62q-172 0 -172 -258z" />
    <glyph glyph-name="adieresis" unicode="&#xe4;" horiz-adv-x="1224" 
d="M33 498q0 279 121 419t329 140q233 0 326 -170l29 141h317v-1028h-332l-24 154q-52 -90 -137.5 -137.5t-194.5 -47.5q-201 0 -317.5 136.5t-116.5 392.5zM160 1309q0 170 194 170q195 0 195 -170q0 -172 -195 -172q-194 0 -194 172zM414 510q0 -248 172 -248q84 0 132 63
t48 187q0 132 -48 194t-132 62q-172 0 -172 -258zM629 1309q0 170 196 170q195 0 195 -170q0 -172 -195 -172q-196 0 -196 172z" />
    <glyph glyph-name="aring" unicode="&#xe5;" horiz-adv-x="1224" 
d="M33 498q0 279 121 419t329 140q233 0 326 -170l29 141h317v-1028h-332l-24 154q-52 -90 -137.5 -137.5t-194.5 -47.5q-201 0 -317.5 136.5t-116.5 392.5zM336 1329q0 105 70.5 163t183.5 58q112 0 182 -58.5t70 -162.5q0 -107 -70 -165t-184 -58q-113 0 -182.5 58
t-69.5 165zM414 510q0 -248 172 -248q84 0 132 63t48 187q0 132 -48 194t-132 62q-172 0 -172 -258zM500 1329q0 -41 24.5 -64.5t63.5 -23.5q40 0 65 23.5t25 64.5q0 39 -24.5 61.5t-63.5 22.5q-40 0 -65 -22.5t-25 -61.5z" />
    <glyph glyph-name="ae" unicode="&#xe6;" horiz-adv-x="1751" 
d="M10 270q0 172 127.5 262.5t337.5 90.5h176q-6 84 -53 114.5t-135 30.5q-193 0 -295 -111l-135 220q160 180 489 180q225 0 336 -125q134 125 359 125q130 0 228 -41t156.5 -114t87.5 -166t29 -204q0 -61 -8 -116h-668q21 -185 218 -185q75 0 124.5 25.5t81.5 81.5
l230 -145q-131 -224 -475 -224q-281 0 -416 172q-132 -170 -416 -170q-174 0 -276.5 78.5t-102.5 220.5zM362 301q0 -45 31 -69.5t92 -24.5q78 0 123 49.5t45 138.5v21h-129q-82 0 -122 -27.5t-40 -87.5zM1042 623h318q-12 163 -148 163q-71 0 -116 -41t-54 -122z" />
    <glyph glyph-name="ccedilla" unicode="&#xe7;" horiz-adv-x="1034" 
d="M33 512q0 278 143.5 411.5t413.5 133.5q165 0 276 -55t178 -173l-270 -196q-30 62 -71.5 87t-104.5 25q-95 0 -140.5 -51.5t-45.5 -183.5q0 -121 42.5 -184.5t139.5 -63.5q147 0 192 119l269 -154q-115 -216 -377 -252l-29 -67h2q94 -8 158.5 -59t64.5 -138
q0 -116 -88 -177.5t-221 -61.5q-102 0 -184.5 38.5t-128.5 112.5l123 127q69 -98 176 -98q43 0 69.5 18t26.5 54q0 30 -28 49.5t-78 19.5q-7 0 -15 -1t-17.5 -2.5t-14.5 -2.5l-56 31l56 155q-219 18 -340 150t-121 389z" />
    <glyph glyph-name="egrave" unicode="&#xe8;" horiz-adv-x="1114" 
d="M33 504q0 258 143.5 405.5t398.5 147.5q108 0 195 -27.5t146 -75t98.5 -115t57.5 -145.5t18 -168q0 -63 -9 -127h-671q25 -168 219 -168q148 0 209 107l229 -145q-64 -109 -187.5 -166.5t-289.5 -57.5q-259 0 -408 136t-149 399zM156 1423v15h422l165 -279v-10h-309z
M408 623h311q-5 78 -42 120.5t-104 42.5q-68 0 -112 -42.5t-53 -120.5z" />
    <glyph glyph-name="eacute" unicode="&#xe9;" horiz-adv-x="1114" 
d="M33 504q0 258 143.5 405.5t398.5 147.5q108 0 195 -27.5t146 -75t98.5 -115t57.5 -145.5t18 -168q0 -63 -9 -127h-671q25 -168 219 -168q148 0 209 107l229 -145q-64 -109 -187.5 -166.5t-289.5 -57.5q-259 0 -408 136t-149 399zM381 1147v10l172 279h408v-15l-279 -274
h-301zM408 623h311q-5 78 -42 120.5t-104 42.5q-68 0 -112 -42.5t-53 -120.5z" />
    <glyph glyph-name="ecircumflex" unicode="&#xea;" horiz-adv-x="1114" 
d="M33 504q0 258 143.5 405.5t398.5 147.5q108 0 195 -27.5t146 -75t98.5 -115t57.5 -145.5t18 -168q0 -63 -9 -127h-671q25 -168 219 -168q148 0 209 107l229 -145q-64 -109 -187.5 -166.5t-289.5 -57.5q-259 0 -408 136t-149 399zM150 1147v8l253 281h318l256 -281v-8
h-305l-119 106l-115 -106h-288zM408 623h311q-5 78 -42 120.5t-104 42.5q-68 0 -112 -42.5t-53 -120.5z" />
    <glyph glyph-name="edieresis" unicode="&#xeb;" horiz-adv-x="1114" 
d="M33 504q0 258 143.5 405.5t398.5 147.5q108 0 195 -27.5t146 -75t98.5 -115t57.5 -145.5t18 -168q0 -63 -9 -127h-671q25 -168 219 -168q148 0 209 107l229 -145q-64 -109 -187.5 -166.5t-289.5 -57.5q-259 0 -408 136t-149 399zM131 1309q0 170 195 170q194 0 194 -170
q0 -172 -194 -172q-195 0 -195 172zM408 623h311q-5 78 -42 120.5t-104 42.5q-68 0 -112 -42.5t-53 -120.5zM600 1309q0 170 197 170q194 0 194 -170q0 -172 -194 -172q-197 0 -197 172z" />
    <glyph glyph-name="igrave" unicode="&#xec;" horiz-adv-x="536" 
d="M-139 1423v15h422l166 -279v-10h-310zM70 0v1028h397v-1028h-397z" />
    <glyph glyph-name="iacute" unicode="&#xed;" horiz-adv-x="536" 
d="M70 0v1028h397v-1028h-397zM86 1147v10l172 279h408v-15l-279 -274h-301z" />
    <glyph glyph-name="icircumflex" unicode="&#xee;" horiz-adv-x="536" 
d="M-145 1147v8l254 281h317l256 -281v-8h-305l-119 106l-115 -106h-288zM70 0v1028h397v-1028h-397z" />
    <glyph glyph-name="idieresis" unicode="&#xef;" horiz-adv-x="536" 
d="M-164 1309q0 170 195 170q194 0 194 -170q0 -172 -194 -172q-195 0 -195 172zM70 0v1028h397v-1028h-397zM305 1309q0 170 197 170q194 0 194 -170q0 -172 -194 -172q-197 0 -197 172z" />
    <glyph glyph-name="eth" unicode="&#xf0;" horiz-adv-x="1191" 
d="M33 492q0 263 135.5 391.5t376.5 128.5q124 0 209 -60q-41 121 -119 199l-154 -98l-75 108l110 74q-81 47 -201 72l84 241q232 -18 400 -133l159 105l76 -111l-129 -82q124 -122 189 -307.5t65 -411.5v-63q0 -300 -140 -438t-421 -138q-279 0 -422 133t-143 390zM408 489
q0 -123 46.5 -180t141.5 -57t140.5 57t45.5 180q0 128 -44 187t-142 59t-143 -59t-45 -187z" />
    <glyph glyph-name="ntilde" unicode="&#xf1;" horiz-adv-x="1249" 
d="M70 0v1028h325l31 -182q59 101 156 156t219 55q99 0 174 -30.5t120 -86.5t67 -129t22 -164v-647h-398v506q0 114 -35 159.5t-112 45.5t-124 -53.5t-48 -157.5v-500h-397zM272 1155q-5 74 13 129t52 85t74 44t85 14q69 0 162.5 -31.5t127.5 -31.5q58 0 58 66h223
q6 -74 -12 -129.5t-52.5 -85.5t-74 -44t-84.5 -14q-69 0 -163 32t-128 32q-57 0 -57 -66h-224z" />
    <glyph glyph-name="ograve" unicode="&#xf2;" horiz-adv-x="1187" 
d="M33 514q0 272 146.5 407.5t414.5 135.5q283 0 422 -132.5t139 -410.5q0 -268 -142.5 -406.5t-418.5 -138.5q-561 0 -561 545zM188 1423v15h422l166 -279v-10h-309zM406 512q0 -134 45 -195t143 -61q97 0 141.5 61.5t44.5 194.5q0 132 -43.5 192t-142.5 60
q-100 0 -144 -60t-44 -192z" />
    <glyph glyph-name="oacute" unicode="&#xf3;" horiz-adv-x="1187" 
d="M33 514q0 272 146.5 407.5t414.5 135.5q283 0 422 -132.5t139 -410.5q0 -268 -142.5 -406.5t-418.5 -138.5q-561 0 -561 545zM406 512q0 -134 45 -195t143 -61q97 0 141.5 61.5t44.5 194.5q0 132 -43.5 192t-142.5 60q-100 0 -144 -60t-44 -192zM414 1147v10l172 279h407
v-15l-278 -274h-301z" />
    <glyph glyph-name="ocircumflex" unicode="&#xf4;" horiz-adv-x="1187" 
d="M33 514q0 272 146.5 407.5t414.5 135.5q283 0 422 -132.5t139 -410.5q0 -268 -142.5 -406.5t-418.5 -138.5q-561 0 -561 545zM182 1147v8l254 281h318l256 -281v-8h-305l-119 106l-115 -106h-289zM406 512q0 -134 45 -195t143 -61q97 0 141.5 61.5t44.5 194.5
q0 132 -43.5 192t-142.5 60q-100 0 -144 -60t-44 -192z" />
    <glyph glyph-name="otilde" unicode="&#xf5;" horiz-adv-x="1187" 
d="M33 514q0 272 146.5 407.5t414.5 135.5q283 0 422 -132.5t139 -410.5q0 -268 -142.5 -406.5t-418.5 -138.5q-561 0 -561 545zM197 1155q-5 74 12.5 129t51.5 85t74 44t85 14q69 0 163 -31.5t128 -31.5t45.5 17.5t11.5 48.5h223q6 -74 -12 -129.5t-52.5 -85.5t-74 -44
t-84.5 -14q-69 0 -163 32t-128 32q-57 0 -57 -66h-223zM406 512q0 -134 45 -195t143 -61q97 0 141.5 61.5t44.5 194.5q0 132 -43.5 192t-142.5 60q-100 0 -144 -60t-44 -192z" />
    <glyph glyph-name="odieresis" unicode="&#xf6;" horiz-adv-x="1187" 
d="M33 514q0 272 146.5 407.5t414.5 135.5q283 0 422 -132.5t139 -410.5q0 -268 -142.5 -406.5t-418.5 -138.5q-561 0 -561 545zM164 1309q0 170 194 170q195 0 195 -170q0 -172 -195 -172q-194 0 -194 172zM406 512q0 -134 45 -195t143 -61q97 0 141.5 61.5t44.5 194.5
q0 132 -43.5 192t-142.5 60q-100 0 -144 -60t-44 -192zM633 1309q0 170 196 170q195 0 195 -170q0 -172 -195 -172q-196 0 -196 172z" />
    <glyph glyph-name="divide" unicode="&#xf7;" horiz-adv-x="974" 
d="M66 530v213h843v-213h-843zM313 260q0 73 49 121.5t123 48.5q75 0 124.5 -48.5t49.5 -121.5q0 -72 -49.5 -120t-124.5 -48q-74 0 -123 48t-49 120zM313 1014q0 73 49 121.5t123 48.5q75 0 124.5 -48.5t49.5 -121.5q0 -72 -49.5 -120t-124.5 -48q-74 0 -123 48t-49 120z
" />
    <glyph glyph-name="oslash" unicode="&#xf8;" horiz-adv-x="1187" 
d="M-18 0l151 154q-100 129 -100 360q0 272 146.5 407.5t414.5 135.5q216 0 352 -80l49 51h215l-151 -156q96 -134 96 -358q0 -268 -142.5 -406.5t-418.5 -138.5q-210 0 -346 82l-51 -51h-215zM399 512q0 -58 9 -82l307 313q-47 35 -121 35q-104 0 -149.5 -63.5
t-45.5 -202.5zM471 276q42 -34 123 -34q101 0 146.5 65t45.5 205q0 56 -6 80z" />
    <glyph glyph-name="ugrave" unicode="&#xf9;" horiz-adv-x="1239" 
d="M66 360v668h397v-557q0 -97 34.5 -141.5t110.5 -44.5q70 0 117.5 54.5t48.5 154.5v534h395v-1028h-321l-31 170q-55 -97 -148 -149t-208 -52q-103 0 -180.5 30t-123.5 84t-68.5 123t-22.5 154zM211 1423v15h422l166 -279v-10h-310z" />
    <glyph glyph-name="uacute" unicode="&#xfa;" horiz-adv-x="1239" 
d="M66 360v668h397v-557q0 -97 34.5 -141.5t110.5 -44.5q70 0 117.5 54.5t48.5 154.5v534h395v-1028h-321l-31 170q-55 -97 -148 -149t-208 -52q-103 0 -180.5 30t-123.5 84t-68.5 123t-22.5 154zM436 1147v10l172 279h408v-15l-279 -274h-301z" />
    <glyph glyph-name="ucircumflex" unicode="&#xfb;" horiz-adv-x="1239" 
d="M66 360v668h397v-557q0 -97 34.5 -141.5t110.5 -44.5q70 0 117.5 54.5t48.5 154.5v534h395v-1028h-321l-31 170q-55 -97 -148 -149t-208 -52q-103 0 -180.5 30t-123.5 84t-68.5 123t-22.5 154zM205 1147v8l254 281h317l256 -281v-8h-305l-119 106l-114 -106h-289z" />
    <glyph glyph-name="udieresis" unicode="&#xfc;" horiz-adv-x="1239" 
d="M66 360v668h397v-557q0 -97 34.5 -141.5t110.5 -44.5q70 0 117.5 54.5t48.5 154.5v534h395v-1028h-321l-31 170q-55 -97 -148 -149t-208 -52q-103 0 -180.5 30t-123.5 84t-68.5 123t-22.5 154zM186 1309q0 170 195 170q194 0 194 -170q0 -172 -194 -172q-195 0 -195 172z
M655 1309q0 170 197 170q195 0 195 -170q0 -172 -195 -172q-197 0 -197 172z" />
    <glyph glyph-name="yacute" unicode="&#xfd;" horiz-adv-x="1198" 
d="M0 1028h410l196 -600l185 600h407l-436 -1126q-39 -98 -107 -159t-151 -84.5t-193 -23.5q-141 0 -248 46l35 264q73 -37 152 -37q106 0 151 86zM418 1147v10l172 279h407v-15l-278 -274h-301z" />
    <glyph glyph-name="thorn" unicode="&#xfe;" horiz-adv-x="1230" 
d="M70 -344v1778h397v-531q51 77 135 115.5t182 38.5q200 0 307 -136t107 -389q0 -260 -119 -411.5t-350 -151.5q-172 0 -262 107v-420h-397zM459 506q0 -122 48.5 -186t129.5 -64q182 0 182 252q0 256 -180 256q-83 0 -131.5 -63t-48.5 -195z" />
    <glyph glyph-name="ydieresis" unicode="&#xff;" horiz-adv-x="1198" 
d="M0 1028h410l196 -600l185 600h407l-436 -1126q-39 -98 -107 -159t-151 -84.5t-193 -23.5q-141 0 -248 46l35 264q73 -37 152 -37q106 0 151 86zM168 1309q0 170 194 170q195 0 195 -170q0 -172 -195 -172q-194 0 -194 172zM637 1309q0 170 197 170q194 0 194 -170
q0 -172 -194 -172q-197 0 -197 172z" />
    <glyph glyph-name="OE" unicode="&#x152;" horiz-adv-x="2150" 
d="M41 719q0 715 700 715h1348v-328h-727v-221h625v-322h-625v-244h747v-319h-1372q-696 0 -696 719zM459 715q0 -198 69.5 -292.5t208.5 -94.5h219v778h-198q-151 0 -225 -91.5t-74 -299.5z" />
    <glyph glyph-name="oe" unicode="&#x153;" horiz-adv-x="1869" 
d="M33 514q0 272 147 407.5t416 135.5q246 0 373 -115q140 115 362 115q132 0 231 -41t158 -115t88 -168t29 -207q0 -61 -8 -118h-668q25 -177 219 -177q144 0 205 107l230 -145q-64 -111 -184 -167.5t-285 -56.5q-243 0 -385 115q-130 -115 -365 -115q-563 0 -563 545z
M408 512q0 -133 44.5 -194.5t141.5 -61.5t142.5 61.5t45.5 194.5q0 132 -44 192t-144 60q-99 0 -142.5 -60t-43.5 -192zM1159 618h320q-5 80 -43.5 124t-108.5 44t-114.5 -43t-53.5 -125z" />
    <glyph glyph-name="Ydieresis" unicode="&#x178;" horiz-adv-x="1441" 
d="M0 1434h459l276 -564l273 564h434l-514 -932v-502h-414v514zM291 1714q0 170 194 170q195 0 195 -170q0 -172 -195 -172q-194 0 -194 172zM760 1714q0 170 196 170q195 0 195 -170q0 -172 -195 -172q-196 0 -196 172z" />
    <glyph glyph-name="circumflex" unicode="&#x2c6;" horiz-adv-x="1206" 
d="M195 1147v8l254 281h317l256 -281v-8h-305l-119 106l-115 -106h-288z" />
    <glyph glyph-name="tilde" unicode="&#x2dc;" horiz-adv-x="1204" 
d="M217 1155q-5 74 12.5 129t51.5 85t74 44t85 14q69 0 163 -31.5t128 -31.5t45.5 17.5t11.5 48.5h224q6 -74 -12 -129.5t-53 -85.5t-74.5 -44t-84.5 -14q-69 0 -162.5 32t-127.5 32q-58 0 -58 -66h-223z" />
    <glyph glyph-name="uni2000" unicode="&#x2000;" horiz-adv-x="978" 
 />
    <glyph glyph-name="uni2001" unicode="&#x2001;" horiz-adv-x="1956" 
 />
    <glyph glyph-name="uni2002" unicode="&#x2002;" horiz-adv-x="978" 
 />
    <glyph glyph-name="uni2003" unicode="&#x2003;" horiz-adv-x="1956" 
 />
    <glyph glyph-name="uni2004" unicode="&#x2004;" horiz-adv-x="652" 
 />
    <glyph glyph-name="uni2005" unicode="&#x2005;" horiz-adv-x="489" 
 />
    <glyph glyph-name="uni2006" unicode="&#x2006;" horiz-adv-x="326" 
 />
    <glyph glyph-name="uni2007" unicode="&#x2007;" horiz-adv-x="326" 
 />
    <glyph glyph-name="uni2008" unicode="&#x2008;" horiz-adv-x="244" 
 />
    <glyph glyph-name="uni2009" unicode="&#x2009;" horiz-adv-x="391" 
 />
    <glyph glyph-name="uni200A" unicode="&#x200a;" horiz-adv-x="108" 
 />
    <glyph glyph-name="uni2010" unicode="&#x2010;" horiz-adv-x="950" 
d="M66 539v303h821v-303h-821z" />
    <glyph glyph-name="uni2011" unicode="&#x2011;" horiz-adv-x="950" 
d="M66 539v303h821v-303h-821z" />
    <glyph glyph-name="figuredash" unicode="&#x2012;" horiz-adv-x="950" 
d="M66 539v303h821v-303h-821z" />
    <glyph glyph-name="endash" unicode="&#x2013;" horiz-adv-x="1132" 
d="M66 539v303h1005v-303h-1005z" />
    <glyph glyph-name="emdash" unicode="&#x2014;" horiz-adv-x="1542" 
d="M66 539v303h1413v-303h-1413z" />
    <glyph glyph-name="quoteleft" unicode="&#x2018;" horiz-adv-x="483" 
d="M39 1116q0 174 82.5 286t238.5 150l74 -151q-127 -38 -166 -146q84 -6 127 -52.5t43 -125.5q0 -90 -51 -136t-147 -46t-148.5 55t-52.5 166z" />
    <glyph glyph-name="quoteright" unicode="&#x2019;" horiz-adv-x="483" 
d="M47 1354q0 90 51 136t146 46q96 0 149 -55t53 -166q0 -174 -82.5 -285.5t-238.5 -148.5l-74 149q127 38 166 146q-84 6 -127 52.5t-43 125.5z" />
    <glyph glyph-name="quotesinglbase" unicode="&#x201a;" horiz-adv-x="481" 
d="M43 164q0 90 51 136t146 46t147.5 -54.5t52.5 -164.5q0 -173 -82.5 -284.5t-236.5 -149.5l-76 149q131 41 168 146q-83 6 -126.5 52t-43.5 124z" />
    <glyph glyph-name="quotedblleft" unicode="&#x201c;" horiz-adv-x="937" 
d="M39 1116q0 174 82.5 286t238.5 150l74 -151q-127 -38 -166 -146q84 -6 127 -52.5t43 -125.5q0 -90 -51 -136t-147 -46t-148.5 55t-52.5 166zM496 1116q0 174 82.5 286t238.5 150l74 -151q-127 -38 -166 -146q84 -6 127 -52.5t43 -125.5q0 -90 -51.5 -136t-147.5 -46
t-148 55t-52 166z" />
    <glyph glyph-name="quotedblright" unicode="&#x201d;" horiz-adv-x="937" 
d="M43 1354q0 90 51 136t146 46q96 0 149 -55t53 -166q0 -174 -82.5 -285.5t-238.5 -148.5l-74 149q127 38 166 146q-84 6 -127 52.5t-43 125.5zM500 1354q0 90 50.5 136t145.5 46q97 0 150 -55t53 -166q0 -174 -82.5 -285.5t-238.5 -148.5l-74 149q127 38 166 146
q-84 6 -127 52.5t-43 125.5z" />
    <glyph glyph-name="quotedblbase" unicode="&#x201e;" horiz-adv-x="937" 
d="M43 164q0 90 51 136t146 46t147.5 -54.5t52.5 -164.5q0 -173 -82.5 -284t-236.5 -148l-76 147q131 41 168 146q-83 6 -126.5 52t-43.5 124zM500 164q0 90 50.5 136t145.5 46t148 -54.5t53 -164.5q0 -173 -82.5 -284t-236.5 -148l-76 147q131 41 168 146q-83 6 -126.5 52
t-43.5 124z" />
    <glyph glyph-name="bullet" unicode="&#x2022;" horiz-adv-x="829" 
d="M63 670q0 158 94.5 252t258.5 94q163 0 256.5 -94t93.5 -252q0 -159 -93.5 -252.5t-256.5 -93.5q-165 0 -259 93.5t-94 252.5z" />
    <glyph glyph-name="ellipsis" unicode="&#x2026;" horiz-adv-x="1619" 
d="M47 176q0 96 54 145.5t155 49.5t155 -49.5t54 -145.5q0 -93 -54.5 -142.5t-154.5 -49.5q-101 0 -155 49t-54 143zM600 176q0 96 54 145.5t155 49.5q102 0 155.5 -49.5t53.5 -145.5q0 -94 -54 -143t-155 -49t-155 49t-54 143zM1155 176q0 96 54 145.5t155 49.5
q100 0 153.5 -49.5t53.5 -145.5q0 -93 -53.5 -142.5t-153.5 -49.5q-101 0 -155 49t-54 143z" />
    <glyph glyph-name="uni202F" unicode="&#x202f;" horiz-adv-x="391" 
 />
    <glyph glyph-name="guilsinglleft" unicode="&#x2039;" horiz-adv-x="868" 
d="M47 510v6l399 512h381l-403 -510l414 -518h-387z" />
    <glyph glyph-name="guilsinglright" unicode="&#x203a;" horiz-adv-x="868" 
d="M31 1028h387l403 -510v-6l-399 -512h-381l403 510z" />
    <glyph glyph-name="uni205F" unicode="&#x205f;" horiz-adv-x="489" 
 />
    <glyph glyph-name="Euro" unicode="&#x20ac;" horiz-adv-x="1437" 
d="M27 463v178h120q-2 20 -2 70v12h-118v178h129q39 288 214 425.5t492 137.5q217 0 357 -80.5t204 -257.5l-319 -157q-42 97 -96 132.5t-152 35.5q-121 0 -194 -54t-101 -182h434l-49 -178h-405v-12q0 -50 2 -70h381l-50 -178h-286q31 -91 96.5 -130.5t167.5 -39.5
q192 0 258 164l326 -154q-142 -336 -592 -336q-291 0 -458 122.5t-218 373.5h-141z" />
    <glyph glyph-name="trademark" unicode="&#x2122;" horiz-adv-x="1501" 
d="M-4 1249v185h598v-185h-191v-418h-210v418h-197zM649 831v603h238l164 -390l174 390h221v-603h-193l2 275l-120 -275h-177l-120 277l4 -277h-193z" />
    <glyph glyph-name="uniE000" unicode="&#xe000;" horiz-adv-x="1024" 
d="M0 0v1024h1024v-1024h-1024z" />
  </font>
</defs>
</svg>
