<?xml version="1.0" encoding="utf-8"?>
<!-- Generator: Adobe Illustrator 16.0.0, SVG Export Plug-In . SVG Version: 6.00 Build 0)  -->
<!DOCTYPE svg PUBLIC "-//W3C//DTD SVG 1.1//EN" "http://www.w3.org/Graphics/SVG/1.1/DTD/svg11.dtd">
<svg version="1.1" id="Layer_1" xmlns="http://www.w3.org/2000/svg" xmlns:xlink="http://www.w3.org/1999/xlink" x="0px" y="0px"
	 width="177px" height="110px" viewBox="0 0 177 110" enable-background="new 0 0 177 110" xml:space="preserve">
<path fill="#22B7E7" d="M88.501,109.604c-23.38,0-45.396-5.561-61.989-15.66C9.566,83.632,0.234,69.802,0.234,55.001
	c0-14.803,9.332-28.633,26.277-38.945C43.105,5.958,65.119,0.396,88.501,0.396c23.38,0,45.396,5.562,61.987,15.66
	c16.947,10.311,26.277,24.143,26.277,38.945c0,14.801-9.33,28.631-26.277,38.943C133.896,104.044,111.881,109.604,88.501,109.604z
	 M88.501,4.933c-46.169,0-83.729,22.461-83.729,50.068c0,27.605,37.561,50.066,83.729,50.066c46.167,0,83.728-22.461,83.728-50.066
	C172.229,27.394,134.668,4.933,88.501,4.933z"/>
<path fill="#22B7E7" d="M70.111,11.751c0.356-0.051,0.693-0.041,1.016,0.027c0.32,0.066,0.606,0.195,0.857,0.385
	s0.459,0.439,0.624,0.748c0.165,0.311,0.273,0.686,0.327,1.125c0.045,0.385,0.038,0.746-0.023,1.084
	c-0.061,0.338-0.176,0.639-0.35,0.9c-0.172,0.262-0.398,0.48-0.682,0.654c-0.282,0.176-0.625,0.291-1.031,0.348
	c-0.763,0.107-1.523,0.221-2.284,0.34c-0.278-1.752-0.556-3.504-0.833-5.256C68.525,11.979,69.318,11.862,70.111,11.751z
	 M70.631,16.06c0.17-0.023,0.33-0.074,0.482-0.15s0.283-0.186,0.392-0.326c0.108-0.143,0.187-0.32,0.235-0.531
	c0.049-0.213,0.056-0.463,0.018-0.754c-0.035-0.268-0.094-0.504-0.174-0.711c-0.082-0.207-0.193-0.379-0.336-0.516
	c-0.145-0.137-0.32-0.232-0.534-0.287c-0.214-0.053-0.469-0.059-0.765-0.018c-0.287,0.041-0.574,0.084-0.859,0.127
	c0.164,1.105,0.329,2.211,0.494,3.318C69.934,16.159,70.281,16.108,70.631,16.06z"/>
<path fill="#22B7E7" d="M81.883,10.63c0.018,0.326,0.034,0.654,0.051,0.982c-0.971,0.049-1.94,0.109-2.91,0.18
	c0.027,0.379,0.055,0.758,0.082,1.139c0.883-0.064,1.766-0.121,2.648-0.166c0.016,0.301,0.032,0.605,0.048,0.906
	c-0.877,0.047-1.753,0.102-2.63,0.166c0.032,0.434,0.063,0.867,0.096,1.301c0.965-0.07,1.931-0.129,2.896-0.178
	c0.018,0.328,0.033,0.654,0.05,0.982c-1.35,0.068-2.698,0.158-4.047,0.268c-0.146-1.768-0.29-3.537-0.435-5.305
	C79.114,10.792,80.498,10.7,81.883,10.63z"/>
<path fill="#22B7E7" d="M88.275,10.458c0.004,1.445,0.009,2.893,0.014,4.338c0.874-0.002,1.748,0.004,2.622,0.02
	c-0.005,0.328-0.011,0.654-0.017,0.982c-1.259-0.021-2.518-0.023-3.777-0.008c-0.021-1.775-0.043-3.549-0.064-5.324
	C87.461,10.462,87.867,10.458,88.275,10.458z"/>
<path fill="#22B7E7" d="M97.174,10.726c-0.092,1.443-0.184,2.887-0.275,4.33c0.873,0.055,1.746,0.119,2.617,0.193
	c-0.027,0.326-0.055,0.654-0.082,0.98c-1.256-0.105-2.513-0.191-3.77-0.262c0.096-1.771,0.192-3.543,0.289-5.314
	C96.359,10.675,96.766,10.698,97.174,10.726z"/>
<path fill="#22B7E7" d="M107.582,11.796c0.438,1.854,0.848,3.711,1.229,5.566c-0.402-0.062-0.806-0.125-1.208-0.186
	c-0.076-0.41-0.152-0.82-0.23-1.23c-0.666-0.098-1.334-0.189-2-0.275c-0.191,0.373-0.381,0.748-0.568,1.121
	c-0.393-0.049-0.785-0.096-1.177-0.143c0.876-1.684,1.779-3.359,2.71-5.025C106.752,11.679,107.168,11.737,107.582,11.796z
	 M107.189,15.038c-0.135-0.678-0.271-1.354-0.413-2.031c-0.005,0-0.01,0-0.015-0.002c-0.326,0.613-0.648,1.227-0.969,1.842
	C106.259,14.907,106.725,14.972,107.189,15.038z"/>
<path fill="#22B7E7" d="M45.862,86.151c0.324,0.111,0.586,0.248,0.784,0.418c0.197,0.166,0.344,0.35,0.438,0.549
	c0.096,0.197,0.145,0.404,0.147,0.619s-0.028,0.428-0.096,0.635c-0.065,0.203-0.163,0.393-0.294,0.566
	c-0.131,0.176-0.293,0.314-0.489,0.418s-0.426,0.162-0.69,0.178c-0.264,0.014-0.563-0.035-0.896-0.148
	c-0.41-0.139-0.82-0.279-1.229-0.424c-0.211,0.602-0.421,1.201-0.631,1.803c-0.395-0.139-0.789-0.279-1.183-0.42
	c0.601-1.67,1.202-3.34,1.803-5.01C44.304,85.614,45.082,85.888,45.862,86.151z M44.739,88.415c0.134,0.047,0.265,0.08,0.395,0.104
	s0.251,0.023,0.363,0c0.11-0.021,0.212-0.074,0.302-0.154s0.162-0.199,0.215-0.359c0.054-0.16,0.069-0.301,0.045-0.418
	c-0.023-0.117-0.072-0.219-0.146-0.305s-0.17-0.158-0.285-0.219c-0.117-0.061-0.24-0.113-0.371-0.158
	c-0.298-0.102-0.596-0.203-0.893-0.307c-0.176,0.5-0.351,1.004-0.526,1.506C44.137,88.208,44.438,88.313,44.739,88.415z"/>
<path fill="#22B7E7" d="M54.489,88.757c0.202,1.889,0.431,3.781,0.688,5.674c-0.419-0.104-0.837-0.211-1.255-0.318
	c-0.039-0.418-0.076-0.838-0.113-1.256c-0.678-0.178-1.355-0.361-2.031-0.549c-0.248,0.34-0.496,0.682-0.746,1.021
	c-0.403-0.113-0.807-0.23-1.209-0.348c1.186-1.502,2.345-3.018,3.479-4.545C53.696,88.544,54.093,88.651,54.489,88.757z
	 M53.719,91.931c-0.06-0.689-0.117-1.379-0.17-2.068c-0.006,0-0.01-0.002-0.016-0.004c-0.4,0.566-0.805,1.131-1.213,1.695
	C52.787,91.681,53.252,91.808,53.719,91.931z"/>
<path fill="#22B7E7" d="M61.099,94.429c0.042,0.137,0.11,0.252,0.205,0.35c0.095,0.1,0.214,0.18,0.355,0.248
	c0.142,0.066,0.292,0.115,0.452,0.146c0.107,0.021,0.227,0.035,0.353,0.041c0.127,0.008,0.249-0.004,0.366-0.031
	c0.117-0.029,0.221-0.078,0.309-0.15s0.145-0.174,0.17-0.305c0.026-0.143,0-0.266-0.078-0.371c-0.078-0.107-0.188-0.203-0.329-0.291
	s-0.306-0.174-0.49-0.256c-0.186-0.082-0.372-0.168-0.56-0.262c-0.193-0.09-0.38-0.189-0.559-0.301
	c-0.178-0.109-0.332-0.236-0.461-0.381c-0.127-0.143-0.221-0.309-0.278-0.496s-0.061-0.402-0.01-0.639
	c0.058-0.268,0.165-0.488,0.324-0.66s0.347-0.303,0.564-0.396c0.216-0.09,0.45-0.145,0.702-0.158c0.252-0.016,0.496,0,0.734,0.049
	c0.278,0.055,0.54,0.137,0.785,0.246c0.244,0.111,0.455,0.252,0.629,0.426s0.301,0.379,0.381,0.613
	c0.078,0.232,0.091,0.502,0.037,0.805c-0.385-0.068-0.768-0.139-1.15-0.213c0.019-0.158,0.01-0.293-0.029-0.406
	c-0.037-0.113-0.1-0.209-0.184-0.287c-0.084-0.076-0.186-0.139-0.303-0.188s-0.25-0.086-0.395-0.115
	c-0.096-0.02-0.191-0.027-0.291-0.027s-0.192,0.018-0.279,0.051c-0.088,0.033-0.164,0.08-0.229,0.143s-0.109,0.15-0.132,0.262
	c-0.021,0.104-0.019,0.191,0.01,0.262c0.027,0.072,0.094,0.146,0.202,0.225c0.108,0.076,0.261,0.164,0.46,0.258
	c0.199,0.096,0.459,0.219,0.783,0.365c0.098,0.039,0.23,0.102,0.402,0.188c0.17,0.084,0.334,0.199,0.49,0.346
	c0.158,0.145,0.284,0.324,0.381,0.535c0.096,0.211,0.117,0.465,0.064,0.758c-0.043,0.24-0.131,0.453-0.266,0.641
	c-0.136,0.188-0.314,0.34-0.535,0.453c-0.223,0.113-0.484,0.184-0.787,0.213c-0.304,0.029-0.645,0.006-1.023-0.068
	c-0.305-0.061-0.596-0.154-0.867-0.283c-0.273-0.129-0.504-0.293-0.691-0.49c-0.188-0.195-0.32-0.424-0.398-0.686
	c-0.078-0.26-0.08-0.551-0.006-0.871c0.387,0.084,0.774,0.166,1.162,0.244C61.055,94.138,61.057,94.294,61.099,94.429z"/>
<path fill="#22B7E7" d="M69.425,92.813c0.047-0.324,0.095-0.65,0.142-0.975c1.465,0.213,2.934,0.4,4.404,0.564
	c-0.035,0.326-0.072,0.652-0.108,0.979c-0.542-0.061-1.083-0.125-1.625-0.191c-0.177,1.436-0.354,2.871-0.532,4.307
	c-0.409-0.051-0.818-0.104-1.229-0.158c0.19-1.434,0.381-2.867,0.57-4.301C70.506,92.966,69.965,92.892,69.425,92.813z"/>
<path fill="#22B7E7" d="M79.931,92.929c-0.116,1.771-0.233,3.543-0.35,5.312c-0.411-0.027-0.823-0.057-1.234-0.086
	c0.132-1.77,0.265-3.539,0.397-5.309C79.139,92.876,79.535,92.903,79.931,92.929z"/>
<path fill="#22B7E7" d="M88.607,94.638c-0.07-0.111-0.16-0.211-0.268-0.295c-0.106-0.086-0.227-0.15-0.361-0.199
	c-0.135-0.047-0.275-0.072-0.423-0.074c-0.269-0.002-0.499,0.047-0.688,0.146s-0.344,0.232-0.465,0.402
	c-0.12,0.17-0.209,0.363-0.268,0.582c-0.059,0.217-0.088,0.441-0.094,0.676c-0.004,0.223,0.019,0.441,0.068,0.654
	c0.051,0.211,0.135,0.404,0.251,0.574c0.116,0.172,0.271,0.309,0.462,0.414c0.191,0.104,0.426,0.156,0.703,0.16
	c0.376,0.002,0.67-0.105,0.882-0.324c0.211-0.219,0.34-0.506,0.386-0.863c0.393-0.002,0.787-0.004,1.18-0.006
	c-0.028,0.332-0.105,0.635-0.233,0.902c-0.128,0.27-0.299,0.5-0.513,0.689c-0.215,0.189-0.467,0.334-0.755,0.434
	c-0.289,0.1-0.607,0.146-0.954,0.145c-0.432-0.004-0.818-0.08-1.16-0.227c-0.342-0.148-0.627-0.35-0.856-0.604
	s-0.401-0.551-0.517-0.889s-0.168-0.703-0.156-1.09c0.01-0.396,0.084-0.764,0.215-1.102c0.133-0.336,0.315-0.629,0.55-0.877
	s0.518-0.441,0.852-0.58c0.333-0.139,0.706-0.205,1.12-0.203c0.298,0.004,0.578,0.047,0.844,0.133
	c0.265,0.084,0.502,0.207,0.713,0.367c0.211,0.162,0.385,0.361,0.525,0.6c0.139,0.236,0.229,0.508,0.266,0.816
	c-0.389,0.004-0.777,0.006-1.166,0.006C88.725,94.872,88.679,94.749,88.607,94.638z"/>
<path fill="#22B7E7" d="M98.486,94.28c-0.08-0.105-0.176-0.197-0.288-0.273s-0.237-0.135-0.376-0.172
	c-0.137-0.039-0.279-0.053-0.427-0.043c-0.269,0.018-0.495,0.082-0.677,0.195s-0.326,0.258-0.434,0.436s-0.184,0.377-0.225,0.6
	c-0.042,0.221-0.057,0.449-0.045,0.682c0.014,0.223,0.052,0.439,0.117,0.646c0.066,0.209,0.163,0.395,0.293,0.555
	c0.129,0.162,0.293,0.289,0.49,0.379c0.199,0.09,0.438,0.127,0.713,0.109c0.377-0.025,0.662-0.154,0.857-0.389
	c0.193-0.232,0.301-0.529,0.32-0.889c0.394-0.029,0.785-0.061,1.178-0.094c-0.003,0.334-0.059,0.641-0.167,0.92
	c-0.108,0.277-0.262,0.52-0.462,0.725c-0.199,0.205-0.439,0.367-0.721,0.486c-0.281,0.121-0.596,0.191-0.941,0.215
	c-0.432,0.027-0.822-0.02-1.174-0.143c-0.352-0.121-0.652-0.301-0.898-0.537c-0.248-0.236-0.441-0.52-0.581-0.85
	c-0.142-0.33-0.218-0.688-0.235-1.074c-0.019-0.398,0.026-0.77,0.134-1.115c0.106-0.346,0.269-0.65,0.483-0.916
	c0.216-0.264,0.484-0.477,0.807-0.641c0.323-0.162,0.689-0.256,1.104-0.283c0.297-0.02,0.581,0.004,0.852,0.07
	c0.27,0.064,0.516,0.17,0.738,0.314s0.412,0.33,0.568,0.557c0.155,0.227,0.264,0.492,0.326,0.797
	c-0.389,0.031-0.777,0.062-1.165,0.092C98.621,94.507,98.566,94.388,98.486,94.28z"/>
<path fill="#22B7E7" d="M108.689,91.708c0.049,0.326,0.099,0.648,0.147,0.975c-0.95,0.143-1.902,0.277-2.856,0.402
	c0.049,0.377,0.098,0.754,0.147,1.131c0.882-0.115,1.763-0.238,2.644-0.371c0.045,0.301,0.09,0.6,0.135,0.9
	c-0.887,0.133-1.773,0.256-2.661,0.371c0.056,0.432,0.112,0.863,0.168,1.295c0.997-0.129,1.993-0.27,2.989-0.422
	c0.049,0.324,0.099,0.648,0.148,0.973c-1.412,0.215-2.825,0.408-4.24,0.58c-0.213-1.762-0.426-3.523-0.639-5.285
	C106.014,92.095,107.352,91.911,108.689,91.708z"/>
<path fill="#22B7E7" d="M116.537,90.276c0.238-0.051,0.461-0.059,0.67-0.025c0.207,0.033,0.393,0.1,0.561,0.199
	c0.166,0.102,0.305,0.229,0.416,0.385s0.189,0.334,0.232,0.533c0.07,0.305,0.064,0.584-0.021,0.836
	c-0.082,0.254-0.264,0.473-0.541,0.656c0.002,0.004,0.002,0.01,0.004,0.014c0.154,0.008,0.289,0.039,0.402,0.098
	s0.215,0.137,0.299,0.232c0.086,0.096,0.158,0.205,0.215,0.33c0.059,0.123,0.107,0.25,0.146,0.379
	c0.025,0.082,0.051,0.178,0.082,0.287c0.029,0.111,0.062,0.223,0.104,0.336c0.039,0.113,0.084,0.221,0.137,0.318
	c0.051,0.098,0.115,0.176,0.188,0.236c-0.404,0.092-0.811,0.182-1.215,0.27c-0.104-0.15-0.188-0.338-0.252-0.562
	c-0.064-0.227-0.135-0.439-0.211-0.641c-0.1-0.264-0.23-0.443-0.389-0.543c-0.16-0.098-0.391-0.115-0.689-0.051
	c-0.4,0.082-0.799,0.164-1.201,0.244c0.139,0.68,0.273,1.361,0.41,2.041c-0.408,0.08-0.814,0.16-1.221,0.238
	c-0.332-1.744-0.664-3.486-0.998-5.23C114.625,90.675,115.582,90.481,116.537,90.276z M116.615,92.722
	c0.273-0.059,0.467-0.16,0.576-0.305c0.111-0.146,0.141-0.352,0.082-0.613c-0.055-0.252-0.162-0.422-0.322-0.506
	c-0.158-0.086-0.375-0.1-0.645-0.043c-0.43,0.09-0.859,0.18-1.291,0.266c0.098,0.488,0.195,0.979,0.295,1.469
	C115.746,92.901,116.182,92.813,116.615,92.722z"/>
<path fill="#22B7E7" d="M124.273,88.38c0.475,1.711,0.947,3.422,1.42,5.131c-0.398,0.111-0.801,0.221-1.203,0.328
	c-0.457-1.715-0.914-3.43-1.375-5.143C123.502,88.593,123.889,88.487,124.273,88.38z"/>
<path fill="#22B7E7" d="M131.914,86.017c1.221,1.457,2.467,2.898,3.738,4.328c-0.408,0.146-0.818,0.293-1.229,0.436
	c-0.266-0.326-0.529-0.652-0.793-0.979c-0.666,0.23-1.334,0.455-2.004,0.676c-0.018,0.42-0.035,0.842-0.055,1.264
	c-0.398,0.131-0.799,0.258-1.199,0.385c0.15-1.908,0.273-3.812,0.369-5.715C131.133,86.28,131.523,86.149,131.914,86.017z
	 M133.039,89.081c-0.436-0.539-0.865-1.078-1.295-1.621c-0.004,0-0.01,0.002-0.016,0.004c-0.018,0.695-0.041,1.389-0.068,2.084
	C132.121,89.396,132.58,89.239,133.039,89.081z"/>
<path fill="#22B7E7" d="M152.035,68.144c-2.4,0.305-4.904-0.584-6.502-2.025c5.783-4.373,8.539-10.088,8.539-13.729
	c0-3.965-2.367-6.289-6.059-6.307c-6.775-0.033-12.396,6.213-12.396,13.264c0,2.92,0.609,5.238,2.035,7.115
	c-2.016,0.891-4.037,1.322-6.254,1.492c-3.684-0.275-5.529-1.434-5.529-3.422c0-0.885,0.279-2.258,0.885-4.238l2.645-8.688
	l3.248,0.018c1.16,0.008,1.818-0.104,2.094-0.928l0.441-1.262c0.055-0.221,0.055-0.383,0.055-0.498c0-0.385-0.328-0.607-1.045-0.611
	l-3.803-0.021l3.082-9.072c0.551-1.537,1.102-2.582,1.102-3.35c0-1.051-1.32-1.715-3.744-1.732c-3.139-0.01-2.811,1.969-3.857,5.436
	l-2.643,8.689l-1.982-0.012c-1.211-0.008-1.818,0.049-2.092,0.873l-0.441,1.316c-0.057,0.166-0.109,0.328-0.109,0.443
	c0,0.549,0.326,0.664,1.047,0.664l2.586,0.016l-2.258,7.973c-1.359,4.889-2.834,7.787-7.482,8.312
	c-3.203-0.281-4.304-0.484-4.304-1.982c0-3.307,4.294-8.848,4.294-12.371c0-2.924-2.75-3.264-7.49-6.32
	c0.385-0.766,0.551-1.48,0.551-2.307c0-1.705-1.156-2.98-3.193-2.996c-2.149-0.008-3.744,1.91-3.744,4.5
	c0,1.213,0.328,2.201,1.21,3.09c-4.151,11.242-7.388,17.322-12.39,18.252C85.994,67.524,85,67.03,85,65.257
	c0-1.764,1.743-7.227,5.291-16.275c0.307-0.787,1.602-3.773,1.602-3.773c2.632-0.252,5.344-4.336,1.432-8.695
	c-1.893-2.109-5.774-3.58-10.062-3.227c-5.604,0.465-10.09,3.16-12.893,5.836c-8.545,7.395-13.402,16.688-13.402,23.84
	c0,1.613,0.294,3.016,0.818,4.191c2.486-0.59,4.245-1.654,4.936-2.506c-0.992,1.295-2.307,2.75-4.152,3.871
	c1.338,1.844,3.414,2.846,5.83,2.857c5.62,0.027,11.404-4.516,17.299-13.572c-1.432,4.068-2.48,6.984-2.48,8.965
	c0,3.307,2.533,4.586,7.986,4.613c0.224,0.004,0.496,0.004,0.719,0.004l0.015-0.051c7.155-0.689,11.612-7.105,15.956-19.695
	c2.037,1.164,3.084,1.996,3.084,2.824c0,2.811-4.073,8.131-4.073,12.262c0,3.471,2.918,4.752,9.085,4.783c0.129,0,0.258,0,0.385,0
	v0.004c0.004,0,0.006,0,0.012,0c0.143,0,0.289,0,0.432,0.002l0.012-0.047c2.764-0.24,5.453-1.354,7.641-3.221
	c1.381,2.1,4.631,3.332,9.477,3.355c0.219,0,0.443,0,0.662,0.002l0.01-0.037c3.35-0.203,6.66-1.055,10.016-2.609
	c2.201,1.826,5.23,2.836,9.252,2.748c6.996-0.152,8.266-4.934,8.266-4.934S155.873,67.659,152.035,68.144z M67.486,66.048
	c-2.147-0.01-3.471-1.506-3.471-4.094c0-2.754,1.323-5.719,3.691-9.455c2.928-4.58,6.189-8.459,9.812-11.574
	c4.653-3.475,8.681-4.414,11.498-3.588c2.814,0.824,3.546,3.471,1.941,4.258c-1.486,0.73-3.339,0.102-4.237-1.098
	c-0.521-0.695-1.444-1.512-3.373,0.012c-1.326,1.045,0.181,2.555,0.483,2.82c0.621,0.561,1.974,1.297,1.974,1.297
	s-0.493,1.217-1.577,3.33C78.006,60.042,71.781,66.067,67.486,66.048z M142.119,59.269c0-4.734,2.809-8.688,5.674-8.674
	c1.434,0.01,2.203,0.84,2.203,2.383c0,2.535-2.314,7.537-6.607,10.32C142.451,62.192,142.119,60.923,142.119,59.269z"/>
<path fill="#22B7E7" d="M53.559,68.782c-3.826,0.32-9.674-2.131-12.625-4.602c3.278-5.398,4.92-11.352,6.229-18.287
	c7.658-0.943,12.087-5.293,12.087-10.379c0-3.445-2.135-5.479-6.127-5.5c-5.029-0.025-9.02,3.725-11.205,11.039
	c-3.227-0.615-4.975-2.154-5.361-4.998c-1.749,0.098-2.842,1.568-2.842,3.918c0,3.174,2.351,5.154,6.779,5.777
	c-1.638,6.555-3.062,11.629-4.538,15.064c-3.391-2.311-6.835-3.477-10.062-3.494c-5.411-0.025-9.075,3.291-9.075,7.607
	c0,4.266,3.607,6.908,9.624,6.936c4.814,0.029,8.691-1.432,11.426-4.148c3.607,2.752,7.493,4.078,11.918,4.16
	c0.4,0.01,0.772-0.004,1.138-0.02l-0.021,0.023c7.018-0.346,10.076-4.238,11.812-7.227C61.824,66.095,58.463,68.372,53.559,68.782z
	 M53.396,32.913c1.038,0.004,1.752,0.668,1.752,1.762c0,1.969-2.518,5.178-6.946,6.197C49.461,35.577,51.373,32.903,53.396,32.913z
	 M26.17,67.821c-3.173-0.018-4.922-1.174-4.922-2.979c0-1.643,1.641-2.943,4.43-2.93c2.459,0.012,5.358,0.902,7.764,2.719
	C31.307,66.808,29.066,67.833,26.17,67.821z"/>
<path fill="#22B7E7" d="M64.395,38.14c-0.318,0.641-0.59,0.824-1.188,1.465c-0.195,0.195-0.251,0.387-0.251,0.58
	c0,0.258,0.183,0.447,0.502,0.447c0.136,0,0.325-0.064,0.456-0.129c4.028-2.238,4.929-5.508,4.929-6.918
	c0-1.605-1.151-2.625-2.624-2.625c-2.053,0-3.912,1.855-3.912,3.648c0,1.137,0.606,1.877,1.525,2.236
	C64.563,37.134,64.607,37.718,64.395,38.14z"/>
</svg>
