<?xml version="1.0" encoding="utf-8"?>
<!-- Generator: Adobe Illustrator 15.0.0, SVG Export Plug-In . SVG Version: 6.00 Build 0)  -->
<!DOCTYPE svg PUBLIC "-//W3C//DTD SVG 1.1//EN" "http://www.w3.org/Graphics/SVG/1.1/DTD/svg11.dtd">
<svg version="1.1" id="Layer_1" xmlns="http://www.w3.org/2000/svg" xmlns:xlink="http://www.w3.org/1999/xlink" x="0px" y="0px"
	 width="40px" height="40px" viewBox="0.5 2.5 40 40" enable-background="new 0.5 2.5 40 40" xml:space="preserve">
<path fill="none" d="M4.061,39.328H36.92c0.824,0,1.494-0.669,1.494-1.494V16.289H2.558v21.545
	C2.558,38.657,3.233,39.328,4.061,39.328z M27.25,20.522c-0.387-0.39-0.387-1.019,0-1.415c0.386-0.384,1.021-0.384,1.411,0
	l1.974,1.974l1.968-1.974c0.387-0.384,1.026-0.384,1.416,0c0.39,0.397,0.39,1.024,0,1.415l-1.97,1.973l1.97,1.968
	c0.39,0.396,0.39,1.02,0,1.414c-0.39,0.391-1.029,0.391-1.416,0l-1.968-1.97l-1.974,1.97c-0.391,0.391-1.025,0.391-1.411,0
	c-0.387-0.395-0.387-1.019,0-1.414l1.971-1.968L27.25,20.522z M16.649,20.522c-0.392-0.39-0.392-1.019,0-1.415
	c0.385-0.384,1.018-0.384,1.409,0l1.973,1.974L22,19.107c0.386-0.384,1.026-0.384,1.414,0c0.39,0.397,0.39,1.024,0,1.415
	l-1.967,1.973l1.967,1.968c0.39,0.396,0.39,1.02,0,1.414c-0.388,0.391-1.028,0.391-1.414,0l-1.969-1.97l-1.973,1.97
	c-0.391,0.391-1.024,0.391-1.409,0c-0.392-0.395-0.392-1.019,0-1.414l1.967-1.968L16.649,20.522z M16.649,31.581
	c-0.392-0.389-0.392-1.019,0-1.415c0.385-0.381,1.018-0.381,1.409,0l1.973,1.974L22,30.166c0.386-0.381,1.026-0.381,1.414,0
	c0.39,0.396,0.39,1.026,0,1.415l-1.967,1.972l1.967,1.972c0.39,0.393,0.39,1.017,0,1.412c-0.388,0.393-1.028,0.393-1.414,0
	l-1.969-1.97l-1.973,1.97c-0.391,0.393-1.024,0.393-1.409,0c-0.392-0.396-0.392-1.02,0-1.412l1.967-1.972L16.649,31.581z
	 M6.047,20.522c-0.393-0.39-0.393-1.019,0-1.415c0.386-0.384,1.017-0.384,1.409,0l1.972,1.974l1.97-1.974
	c0.385-0.384,1.028-0.384,1.415,0c0.39,0.397,0.39,1.024,0,1.415l-1.965,1.973l1.965,1.968c0.39,0.396,0.39,1.02,0,1.414
	c-0.386,0.391-1.03,0.391-1.415,0l-1.97-1.97l-1.972,1.972c-0.39,0.391-1.021,0.391-1.409,0c-0.393-0.395-0.393-1.019,0-1.416
	l1.965-1.968L6.047,20.522z M6.047,31.581c-0.393-0.389-0.393-1.019,0-1.415c0.386-0.381,1.017-0.381,1.409,0l1.972,1.974
	l1.97-1.974c0.385-0.381,1.028-0.381,1.415,0c0.39,0.396,0.39,1.026,0,1.415l-1.965,1.972l1.965,1.972
	c0.39,0.393,0.39,1.017,0,1.412c-0.386,0.393-1.03,0.393-1.415,0l-1.97-1.97l-1.972,1.97c-0.39,0.395-1.021,0.395-1.409,0
	c-0.393-0.394-0.393-1.018,0-1.412l1.965-1.97L6.047,31.581z"/>
<path fill="#333333" d="M11.55,8.362c0.768,0,1.394-0.622,1.394-1.394V3.901c0-0.774-0.626-1.401-1.394-1.401
	c-0.773,0-1.395,0.626-1.395,1.401V6.97C10.155,7.74,10.777,8.362,11.55,8.362z"/>
<path fill="#333333" d="M28.323,8.362c0.769,0,1.394-0.622,1.394-1.394V3.901C29.719,3.126,29.092,2.5,28.323,2.5
	c-0.772,0-1.393,0.626-1.393,1.401V6.97C26.931,7.74,27.552,8.362,28.323,8.362z"/>
<path fill="#333333" d="M16.649,36.937c0.385,0.395,1.018,0.395,1.409,0l1.973-1.968L22,36.937c0.386,0.395,1.026,0.395,1.414,0
	c0.39-0.394,0.39-1.018,0-1.412l-1.967-1.97l1.967-1.972c0.39-0.391,0.39-1.019,0-1.415c-0.388-0.383-1.028-0.383-1.414,0
	l-1.969,1.974l-1.973-1.974c-0.391-0.383-1.024-0.383-1.409,0c-0.392,0.396-0.392,1.024,0,1.415l1.967,1.972l-1.967,1.97
	C16.258,35.919,16.258,36.543,16.649,36.937z"/>
<path fill="#333333" d="M6.047,25.879c0.386,0.391,1.017,0.391,1.409,0l1.972-1.97l1.97,1.97c0.385,0.391,1.028,0.391,1.415,0
	c0.39-0.395,0.39-1.019,0-1.416l-1.965-1.968l1.965-1.972c0.39-0.389,0.39-1.019,0-1.415c-0.386-0.383-1.03-0.383-1.415,0
	l-1.97,1.974l-1.972-1.975c-0.39-0.384-1.021-0.384-1.409,0c-0.393,0.397-0.393,1.024,0,1.415l1.965,1.973l-1.965,1.968
	C5.654,24.858,5.654,25.482,6.047,25.879z"/>
<path fill="#333333" d="M27.25,25.879c0.386,0.391,1.021,0.391,1.411,0l1.974-1.97l1.968,1.97c0.387,0.391,1.026,0.391,1.416,0
	c0.39-0.395,0.39-1.019,0-1.416l-1.97-1.968l1.97-1.972c0.39-0.389,0.39-1.019,0-1.415c-0.39-0.383-1.029-0.383-1.416,0
	l-1.968,1.974l-1.974-1.974c-0.391-0.383-1.025-0.383-1.411,0c-0.387,0.397-0.387,1.025,0,1.415l1.971,1.972l-1.971,1.968
	C26.863,24.858,26.863,25.482,27.25,25.879z"/>
<path fill="#333333" d="M16.649,25.879c0.385,0.391,1.018,0.391,1.409,0l1.973-1.97L22,25.879c0.386,0.391,1.026,0.391,1.414,0
	c0.39-0.395,0.39-1.019,0-1.416l-1.967-1.968l1.967-1.972c0.39-0.389,0.39-1.019,0-1.415c-0.388-0.383-1.028-0.383-1.414,0
	l-1.969,1.974l-1.973-1.974c-0.391-0.383-1.024-0.383-1.409,0c-0.392,0.397-0.392,1.025,0,1.415l1.967,1.972l-1.967,1.968
	C16.258,24.858,16.258,25.482,16.649,25.879z"/>
<path fill="#333333" d="M6.047,36.937c0.386,0.395,1.017,0.395,1.409,0l1.972-1.968l1.97,1.968c0.385,0.395,1.028,0.395,1.415,0
	c0.39-0.394,0.39-1.018,0-1.412l-1.965-1.97l1.965-1.972c0.39-0.391,0.39-1.019,0-1.415c-0.386-0.383-1.03-0.383-1.415,0
	l-1.97,1.974l-1.972-1.976c-0.39-0.381-1.021-0.381-1.409,0c-0.393,0.396-0.393,1.026,0,1.415l1.965,1.972l-1.965,1.972
	C5.654,35.919,5.654,36.543,6.047,36.937z"/>
<path fill="#333333" d="M36.921,4.925h-6.345v2.298c0,1.22-0.994,2.213-2.215,2.213c-1.22,0-2.214-0.993-2.214-2.213V4.925H13.764
	v2.298c0,1.22-0.993,2.213-2.215,2.213c-1.221,0-2.214-0.993-2.214-2.213V4.925H4.061C2.098,4.925,0.5,6.521,0.5,8.482v7.807v21.543
	c0,1.96,1.598,3.553,3.561,3.553H36.92c1.958,0,3.553-1.593,3.553-3.553V16.289V8.482C40.474,6.521,38.878,4.925,36.921,4.925z
	 M38.416,37.834c0,0.825-0.671,1.494-1.495,1.494H4.061c-0.828,0-1.503-0.669-1.503-1.494V16.289h35.858V37.834z"/>
</svg>
