<svg xmlns="http://www.w3.org/2000/svg" width="111px" height="44px" viewBox="0 0 111 44"><path fill="#333333" d="M22.009,0C9.852,0,0,9.852,0,22.009c0,12.152,9.852,22.009,22.009,22.009 c12.156,0,22.008-9.855,22.008-22.009C44.017,9.852,34.165,0,22.009,0z M12.606,29.182H4.947c0.113-3.068,2.014-5.617,4.566-6.373 l-0.018-0.012c-1.437-0.576-2.447-1.95-2.447-3.551c0-2.125,1.771-3.846,3.959-3.846s3.961,1.721,3.961,3.846 c0,1.602-1.012,2.977-2.449,3.551l-0.009,0.012c0.622,0.185,1.204,0.476,1.731,0.853c-0.974,1.579-1.563,3.462-1.636,5.481 L12.606,29.182L12.606,29.182z M13.733,29.182c0.155-4.184,2.745-7.655,6.229-8.689l-0.025-0.011 c-1.959-0.785-3.338-2.657-3.338-4.844c0-2.892,2.417-5.24,5.397-5.24c2.979,0,5.396,2.348,5.396,5.24 c0,2.188-1.38,4.059-3.34,4.846l-0.011,0.011c3.483,1.036,6.074,4.507,6.228,8.691H13.733V29.182z M31.398,29.182l-0.002-0.039 c-0.072-2.019-0.658-3.896-1.633-5.475c0.531-0.381,1.116-0.677,1.74-0.859l-0.017-0.012c-1.437-0.576-2.448-1.95-2.448-3.551 c0-2.125,1.773-3.846,3.96-3.846s3.961,1.721,3.961,3.846c0,1.602-1.012,2.977-2.449,3.551l-0.01,0.012 c2.555,0.758,4.456,3.306,4.569,6.373H31.398z"/><circle fill="#333333" cx="97.616" cy="35.132" r="0.941"/><rect x="92.421" y="18.6" fill="#333333" width="10.224" height="14.39"/><path fill="#333333" d="M88.991,0C76.835,0,66.982,9.852,66.982,22.009c0,12.156,9.853,22.009,22.009,22.009 c12.155,0,22.009-9.853,22.009-22.009C111,9.852,101.146,0,88.991,0z M89.852,31.13H71.979c-0.881,0-1.6-0.67-1.694-1.521h19.567 V31.13L89.852,31.13z M89.852,28.919H70.398c0.05-0.092,0.113-0.178,0.188-0.252c4.543-4.274,4.892-4.274,5.332-4.274h13.933V28.919 L89.852,28.919z M89.852,22.895h-12.92c-0.937,0-1.699-0.764-1.699-1.701V8.435c0-0.937,0.762-1.7,1.699-1.7h20.205 c0.938,0,1.703,0.761,1.703,1.7v5.254h-2.061V8.79H77.286v12.05h12.565V22.895L89.852,22.895z M104.184,35.049 c0,1.232-1.041,2.233-2.32,2.233h-8.664c-1.281,0-2.316-1.001-2.316-2.233V16.95c0-1.232,1.035-2.233,2.316-2.233h8.664 c1.279,0,2.32,1.003,2.32,2.233V35.049z"/><polygon fill="#333333" points="60.584,22.557 56.363,22.557 56.363,18.334 53.44,18.334 53.44,22.557 49.22,22.557 49.22,25.479 53.44,25.479 53.44,29.698 56.363,29.698 56.363,25.479 60.584,25.479 "/></svg>