<svg xmlns="http://www.w3.org/2000/svg" width="40.771px" height="45px" viewBox="0 0 48.616 53.659">
<path display="inline" fill="#333333" d="M0,5.389c0.482,3.153,2.329,5.829,3.662,8.661c2.11,4.485,4.132,9.012,6.174,13.528 c2.13,4.709,9.614,22.565,12.406,25.247l0.002-0.002c0.196,0.196,0.822,0.803,1.906,0.836h0.027c0.658,0,1.389-0.326,1.973-0.98 c4.281-7.564,7.649-15.825,11.417-23.662c2.305-4.793,4.608-9.586,6.913-14.379c1.555-3.233,4.26-6.298,4.127-9.984 C20.503-6.231,0,5.389,0,5.389z M42.188,15.227c-1.062-0.419-3.048-0.863-5.142,0.436c-2.809,2.309-1.889,6.386,1.087,7.999 L31.058,38.38c-1.728-3.341-6.849-2.776-8.391,0.367c-1.7,3.465,1.305,7.165,4.971,6.75l-2.905,6.043 c-0.3,0.288-0.46,0.301-0.583,0.309c-0.288,0.004-0.435-0.3-0.625-0.3v0.001c-3.945-4.662-6.145-11.769-8.65-17.253 c9.904,0,2.71-14.848-3.479-7.663c-0.667-1.475-1.322-2.926-1.959-4.333c0,0,0,0,0,0c5.567-3.312,2.173-11.632-3.937-8.595 c-0.354-0.755-0.687-1.457-0.987-2.083C16.856,6.908,31.47,7.295,43.83,11.81L42.188,15.227 C41.126,14.808,42.188,15.227,42.188,15.227z"/><path display="inline" fill="#333333" d="M25.78,14.444c-2.784,0-5.138,2.364-5.138,5.138c0,0,0,0,0,0.001 c0,6.6,10.277,6.6,10.277,0c0,0,0,0,0-0.001C30.919,16.808,28.564,14.444,25.78,14.444C24.45,14.444,27.111,14.444,25.78,14.444z" /></svg>