<svg xmlns="http://www.w3.org/2000/svg" width="40.771px" height="45px" viewBox="0 0 48.616 53.659"><path display="inline" fill="#333333" d="M44.043,6.684l-2.836,0.19c-0.447-0.179-0.885-0.385-1.312-0.611 c0.046-1.845,0.091-3.69,0.136-5.533c0.012-0.468-0.334-0.762-0.786-0.727C27.623,0.899,16.003,1.795,4.382,2.692 c-0.04,0.002-0.065,0.02-0.1,0.029c-0.025,0.005-0.047,0.012-0.071,0.02C4.158,2.76,4.108,2.778,4.068,2.808 c-0.033,0.021-0.057,0.05-0.083,0.078C3.962,2.913,3.938,2.937,3.92,2.966c-0.028,0.045-0.043,0.1-0.058,0.157 C3.856,3.145,3.852,3.164,3.848,3.186C3.843,3.222,3.827,3.249,3.827,3.29v0.014L3.776,3.311L3.625,43.438l0.009,0.063 c0.322,2.097,3.575,5.138,8.025,6.864c10.769-0.622,21.534-1.245,32.303-1.867c0.334-0.019,0.664-0.396,0.667-0.725 C44.75,34.37,44.871,20.965,44.992,7.56C44.998,6.993,44.597,6.646,44.043,6.684 M11.364,45.341c-0.247,0-0.447-0.2-0.447-0.447 c0-8.041-0.014-27.051-0.016-30.477c0-0.245,0.199-0.447,0.447-0.447c0.245,0,0.447,0.2,0.447,0.447 c0.002,3.426,0.016,22.433,0.019,30.477C11.814,45.141,11.612,45.341,11.364,45.341 M11.383,8.878 c-0.22-0.109-2.845-1.439-3.865-2.411c0.163-0.013,26.854-2.036,29.074-2.206c-0.451,0.034,0.907,1.524,2.966,2.724 C30.167,7.616,20.775,8.247,11.383,8.878"/></svg>