<svg xmlns="http://www.w3.org/2000/svg" width="40.771px" height="45px" viewBox="0 0 48.616 53.659"><path display="inline" fill="#333333" d="M21.067,21.109c0-1.789,1.451-3.241,3.241-3.241c1.791,0,3.24,1.453,3.24,3.241 c0,1.79-1.449,3.242-3.24,3.242C22.518,24.351,21.067,22.899,21.067,21.109 M17.825,21.109c0,3.58,2.903,6.483,6.482,6.483 c3.579,0,6.483-2.903,6.483-6.483c0-3.579-2.904-6.482-6.483-6.482C20.728,14.627,17.825,17.53,17.825,21.109 M12.964,21.109 c0-6.265,5.079-11.343,11.343-11.343c6.266,0,11.343,5.078,11.343,11.343c0,6.267-5.077,11.344-11.343,11.344 C18.043,32.453,12.964,27.376,12.964,21.109 M6.482,8.145h6.482v3.241H6.482V8.145z M4.861,3.283C2.206,3.283,0.046,5.414,0,8.06 v26.1c0.046,2.646,2.206,4.776,4.861,4.776h38.893c2.685,0,4.862-2.177,4.862-4.86V8.145c0-2.685-2.178-4.862-4.862-4.862H4.861z  M33.981,0.042c-0.896,0-1.621,0.726-1.621,1.621h11.394c0-0.895-0.726-1.621-1.62-1.621H33.981z"/></svg>