<svg version="1.1" id="Layer_1" xmlns="http://www.w3.org/2000/svg" xmlns:xlink="http://www.w3.org/1999/xlink" x="0px" y="0px"
	 width="420.252px" height="53.383px" viewBox="0 0 420.252 53.383" enable-background="new 0 0 420.252 53.383"
	 xml:space="preserve">
<path fill="none" d="M106.719,20.569c-3.182,0-5.01,2.24-5.01,6.661c0,4.712,1.77,6.835,5.01,6.835c3.24,0,5.244-2.418,5.244-6.896
	C111.963,22.869,109.842,20.569,106.719,20.569z"/>
<path fill="none" d="M356.196,20.042c-2.653,0-4.48,1.647-4.832,4.831h9.19C360.379,21.807,358.906,20.042,356.196,20.042z"/>
<path fill="none" d="M60.637,20.042c-2.652,0-4.479,1.647-4.832,4.831h9.193C64.82,21.807,63.348,20.042,60.637,20.042z"/>
<path fill="none" d="M239.724,35.127c3.123,0,5.305-2.301,5.305-7.191c0-5.303-2.239-7.367-5.305-7.367
	c-3.123,0-4.947,2.121-4.947,7.426C234.776,32.768,236.365,35.127,239.724,35.127z"/>
<linearGradient id="SVGID_1_" gradientUnits="userSpaceOnUse" x1="0" y1="53.3804" x2="1" y2="53.3804" gradientTransform="matrix(420.252 0 0 -420.252 0.0898 22461.0176)">
	<stop  offset="0" style="stop-color:#808285"/>
	<stop  offset="1" style="stop-color:#FFFFFF"/>
</linearGradient>
<polygon fill="url(#SVGID_1_)" points="19.033,42.67 23.689,25.875 28.345,42.67 38.185,42.67 47.32,13.086 37.125,13.086 
	33,29.411 28.109,13.146 19.564,13.146 14.791,29.292 10.489,13.086 0,13.086 9.252,42.67 "/>
<linearGradient id="SVGID_2_" gradientUnits="userSpaceOnUse" x1="0" y1="53.3804" x2="1" y2="53.3804" gradientTransform="matrix(420.252 0 0 -420.252 0.0898 22461.0176)">
	<stop  offset="0" style="stop-color:#808285"/>
	<stop  offset="1" style="stop-color:#FFFFFF"/>
</linearGradient>
<rect x="77.432" y="13.086" fill="url(#SVGID_2_)" width="11.432" height="29.584"/>
<linearGradient id="SVGID_3_" gradientUnits="userSpaceOnUse" x1="0" y1="53.394" x2="1" y2="53.394" gradientTransform="matrix(420.252 0 0 -420.252 0.0898 22461.0176)">
	<stop  offset="0" style="stop-color:#808285"/>
	<stop  offset="1" style="stop-color:#FFFFFF"/>
</linearGradient>
<path fill="url(#SVGID_3_)" d="M125.412,1.417V42.67h11.431V28.29c0.059-4.125,2.121-6.068,4.95-6.068
	c2.83,0,4.244,1.354,4.244,5.891V42.67h11.432V24.047c0-6.776-3.24-11.787-10.608-11.787c-4.301,0-7.955,2.181-10.018,6.072V1.417
	H125.412z"/>
<linearGradient id="SVGID_4_" gradientUnits="userSpaceOnUse" x1="0" y1="53.3804" x2="1" y2="53.3804" gradientTransform="matrix(420.252 0 0 -420.252 0.0898 22461.0176)">
	<stop  offset="0" style="stop-color:#808285"/>
	<stop  offset="1" style="stop-color:#FFFFFF"/>
</linearGradient>
<path fill="url(#SVGID_4_)" d="M61.168,43.553c6.247,0,11.019-2.123,13.494-6.426l-6.599-4.184
	c-1.239,2.184-3.124,3.066-5.893,3.066c-3.539,0-5.776-1.475-6.307-5.07h19.212c0.177-1.236,0.235-2.297,0.235-3.418
	c0-8.424-4.124-15.262-14.556-15.262c-9.84,0-15.615,6.072-15.615,15.91C45.139,38.543,51.502,43.553,61.168,43.553z M60.637,20.042
	c2.711,0,4.183,1.766,4.361,4.831h-9.193C56.158,21.689,57.985,20.042,60.637,20.042z"/>
<linearGradient id="SVGID_5_" gradientUnits="userSpaceOnUse" x1="0" y1="53.3804" x2="1" y2="53.3804" gradientTransform="matrix(420.252 0 0 -420.252 0.0898 22461.0176)">
	<stop  offset="0" style="stop-color:#808285"/>
	<stop  offset="1" style="stop-color:#FFFFFF"/>
</linearGradient>
<path fill="url(#SVGID_5_)" d="M407.287,12.26c-8.957,0-13.024,4.125-13.024,9.664c0,5.717,4.302,8.723,9.844,10.018l2.474,0.592
	c2.357,0.529,3.475,0.941,3.475,2.119c0,1.238-1.235,1.768-3.77,1.768c-3.773,0-7.19-1.293-8.898-3.652l-4.949,5.303
	c2.532,3.596,7.481,5.422,13.79,5.422c10.194,0,13.847-4.773,13.847-9.783c0-4.359-2.71-7.718-9.252-9.191l-3.418-0.768
	c-2.475-0.529-3.417-1.236-3.417-2.238c0-1.297,1.414-1.767,3.595-1.767c3.594,0,5.892,1.413,7.366,3.181l5.304-5.42
	C417.482,13.852,412.885,12.26,407.287,12.26z"/>
<linearGradient id="SVGID_6_" gradientUnits="userSpaceOnUse" x1="0" y1="53.3892" x2="1" y2="53.3892" gradientTransform="matrix(420.252 0 0 -420.252 0.0898 22461.0176)">
	<stop  offset="0" style="stop-color:#808285"/>
	<stop  offset="1" style="stop-color:#FFFFFF"/>
</linearGradient>
<path fill="url(#SVGID_6_)" d="M159.578,4.834v27.814c0,8.428,5.303,10.904,11.609,10.904c3.358,0,6.188-0.768,8.484-2.123
	l-1.472-6.777c-1.119,0.592-2.358,0.826-3.654,0.826c-2.533,0-3.772-1.355-3.772-3.949V21.336h7.604v-7.89l9.138,29.224h9.784
	l4.654-16.795l4.657,16.795h9.839l9.133-29.584h-10.194l-4.126,16.324l-4.889-16.265h-8.545l-4.773,16.146l-4.301-16.205h-10.377
	h-7.604V4.834H159.578z"/>
<linearGradient id="SVGID_7_" gradientUnits="userSpaceOnUse" x1="0" y1="53.3687" x2="1" y2="53.3687" gradientTransform="matrix(420.252 0 0 -420.252 0.0898 22461.0176)">
	<stop  offset="0" style="stop-color:#808285"/>
	<stop  offset="1" style="stop-color:#FFFFFF"/>
</linearGradient>
<path fill="url(#SVGID_7_)" d="M123.277,38.594V13.086h-9.193l-0.824,4.065c-1.885-3.241-5.186-4.892-9.368-4.892
	c-7.722,0-13.024,5.011-13.024,15.145c0,9.961,5.007,14.791,12.255,14.791c4.127,0,6.955-1.59,8.724-4.596v1.227
	c0,4.48-2.301,6.66-6.542,6.66c-3.006,0-5.659-1.117-7.368-3.83l-6.009,5.541c2.357,4.477,8.072,6.186,13.906,6.186
	C115.912,53.383,123.277,48.61,123.277,38.594z M106.719,34.065c-3.24,0-5.01-2.123-5.01-6.835c0-4.421,1.828-6.661,5.01-6.661
	c3.123,0,5.244,2.3,5.244,6.6C111.963,31.647,109.959,34.065,106.719,34.065z"/>
<linearGradient id="SVGID_8_" gradientUnits="userSpaceOnUse" x1="0" y1="53.3892" x2="1" y2="53.3892" gradientTransform="matrix(420.252 0 0 -420.252 0.0898 22461.0176)">
	<stop  offset="0" style="stop-color:#808285"/>
	<stop  offset="1" style="stop-color:#FFFFFF"/>
</linearGradient>
<path fill="url(#SVGID_8_)" d="M258.421,4.834v27.814c0,8.428,5.302,10.904,11.61,10.904c3.356,0,6.187-0.768,8.484-2.123
	l-1.473-6.777c-1.119,0.592-2.357,0.826-3.655,0.826c-2.531,0-3.771-1.355-3.771-3.949V21.336h7.604v-8.25h-7.604V4.834H258.421z"/>
<linearGradient id="SVGID_9_" gradientUnits="userSpaceOnUse" x1="0" y1="53.4341" x2="1" y2="53.4341" gradientTransform="matrix(420.252 0 0 -420.252 0.0898 22461.0176)">
	<stop  offset="0" style="stop-color:#808285"/>
	<stop  offset="1" style="stop-color:#FFFFFF"/>
</linearGradient>
<path fill="url(#SVGID_9_)" d="M76.784,5.6c0,3.771,2.298,5.479,6.363,5.479c4.007,0,6.248-1.708,6.248-5.479
	c0-3.891-2.241-5.6-6.248-5.6C79.082,0,76.784,1.709,76.784,5.6z"/>
<linearGradient id="SVGID_10_" gradientUnits="userSpaceOnUse" x1="0" y1="53.394" x2="1" y2="53.394" gradientTransform="matrix(420.252 0 0 -420.252 0.0898 22461.0176)">
	<stop  offset="0" style="stop-color:#808285"/>
	<stop  offset="1" style="stop-color:#FFFFFF"/>
</linearGradient>
<path fill="url(#SVGID_10_)" d="M307.698,1.417V42.67h11.43V28.29c0.063-4.125,2.124-6.068,4.952-6.068s4.243,1.354,4.243,5.891
	V42.67h11.433V24.047c0-6.776-3.242-11.787-10.607-11.787c-4.304,0-7.957,2.181-10.021,6.072V1.417H307.698z"/>
<linearGradient id="SVGID_11_" gradientUnits="userSpaceOnUse" x1="0" y1="53.3804" x2="1" y2="53.3804" gradientTransform="matrix(420.252 0 0 -420.252 0.0898 22461.0176)">
	<stop  offset="0" style="stop-color:#808285"/>
	<stop  offset="1" style="stop-color:#FFFFFF"/>
</linearGradient>
<path fill="url(#SVGID_11_)" d="M236.365,43.553c4.183,0,7.602-1.828,9.604-5.303l0.707,4.42h9.548V13.086h-9.135l-0.826,4.065
	c-1.824-3.3-5.065-4.892-9.426-4.892c-7.663,0-13.022,5.011-13.022,16.09C223.815,38.368,228.823,43.553,236.365,43.553z
	 M239.724,20.569c3.065,0,5.305,2.064,5.305,7.367c0,4.891-2.182,7.191-5.305,7.191c-3.358,0-4.947-2.359-4.947-7.133
	C234.776,22.69,236.601,20.569,239.724,20.569z"/>
<linearGradient id="SVGID_12_" gradientUnits="userSpaceOnUse" x1="0" y1="53.3804" x2="1" y2="53.3804" gradientTransform="matrix(420.252 0 0 -420.252 0.0898 22461.0176)">
	<stop  offset="0" style="stop-color:#808285"/>
	<stop  offset="1" style="stop-color:#FFFFFF"/>
</linearGradient>
<path fill="url(#SVGID_12_)" d="M293.966,21.217c2.3,0,3.891,0.767,5.069,3.244l7.777-5.66c-2.592-4.594-6.835-6.541-13.081-6.541
	c-10.077,0-16.028,4.774-16.028,15.676c0,11.08,6.127,15.617,15.498,15.617c7.012,0,11.374-2.654,13.906-7.426l-7.719-4.42
	c-0.826,2.18-2.711,3.42-5.541,3.42c-3.889,0-5.244-2.713-5.244-7.133C288.604,22.69,290.549,21.217,293.966,21.217z"/>
<linearGradient id="SVGID_13_" gradientUnits="userSpaceOnUse" x1="0" y1="53.3804" x2="1" y2="53.3804" gradientTransform="matrix(420.252 0 0 -420.252 0.0898 22461.0176)">
	<stop  offset="0" style="stop-color:#808285"/>
	<stop  offset="1" style="stop-color:#FFFFFF"/>
</linearGradient>
<path fill="url(#SVGID_13_)" d="M370.869,27.522c0-8.424-4.125-15.262-14.557-15.262c-9.841,0-15.614,6.072-15.614,15.91
	c0,10.373,6.364,15.383,16.029,15.383c6.245,0,11.019-2.123,13.492-6.426l-6.599-4.184c-1.24,2.184-3.123,3.066-5.893,3.066
	c-3.536,0-5.775-1.475-6.308-5.07h19.212C370.81,29.704,370.869,28.643,370.869,27.522z M351.364,24.873
	c0.352-3.184,2.179-4.831,4.832-4.831c2.71,0,4.183,1.766,4.358,4.831H351.364z"/>
<linearGradient id="SVGID_14_" gradientUnits="userSpaceOnUse" x1="0" y1="53.3813" x2="1" y2="53.3813" gradientTransform="matrix(420.252 0 0 -420.252 0.0898 22461.0176)">
	<stop  offset="0" style="stop-color:#808285"/>
	<stop  offset="1" style="stop-color:#FFFFFF"/>
</linearGradient>
<path fill="url(#SVGID_14_)" d="M393.028,12.143c-4.539,0-8.253,2.535-10.253,6.658l-0.945-5.715h-9.37V42.67h11.431V32.122
	c0.061-5.718,2.947-9.549,9.254-9.136L393.028,12.143z"/>
</svg>