<?xml version="1.0" encoding="utf-8"?><svg version="1.1" id="Layer_1" xmlns="http://www.w3.org/2000/svg" xmlns:xlink="http://www.w3.org/1999/xlink" x="0px" y="0px"	viewBox="0 0 70 16" style="enable-background:new 0 0 70 16;" xml:space="preserve"><path style="fill:#FFFFFF;" d="M1.1,0.2h2.3v5.6h0c0.2-0.4,0.5-0.6,0.9-0.9C4.6,4.7,5,4.6,5.5,4.6c0.3,0,0.6,0,0.8,0.1	S6.9,5,7.1,5.2c0.2,0.2,0.4,0.5,0.5,0.9c0.1,0.3,0.2,0.8,0.2,1.3V16H5.6V8.2c0-0.4-0.1-0.7-0.3-1S4.9,6.9,4.5,6.9 C4.1,6.9,3.8,7,3.6,7.3S3.4,7.9,3.4,8.4V16H1.1V0.2z"/><path style="fill:#FFFFFF;" d="M11.4,11.2v1.5c0,0.4,0.1,0.6,0.3,0.8c0.2,0.2,0.5,0.3,0.8,0.3c0.4,0,0.7-0.1,0.9-0.4	s0.2-0.5,0.3-0.8h2.3c0,0.5-0.1,0.9-0.2,1.3c-0.2,0.4-0.4,0.8-0.7,1.1c-0.3,0.3-0.7,0.6-1.1,0.7c-0.4,0.2-0.9,0.3-1.4,0.3	c-0.7,0-1.3-0.1-1.8-0.4c-0.5-0.3-0.9-0.7-1.2-1.2c-0.2-0.3-0.3-0.6-0.3-1c-0.1-0.4-0.1-0.8-0.1-1.3V8.5c0-0.5,0-0.9,0.1-1.3	c0.1-0.4,0.2-0.7,0.3-1c0.3-0.5,0.7-0.9,1.2-1.2c0.5-0.3,1.1-0.4,1.8-0.4c0.5,0,1,0.1,1.4,0.3s0.8,0.4,1.1,0.7	c0.3,0.3,0.5,0.7,0.7,1.1c0.2,0.4,0.2,0.9,0.2,1.4v3.1H11.4z M11.4,9.4h2.2V8.2c0-0.4-0.1-0.8-0.3-1c-0.2-0.2-0.5-0.3-0.8-0.3	S11.9,7,11.7,7.2c-0.2,0.2-0.3,0.5-0.3,1V9.4z"/><path style="fill:#FFFFFF;" d="M16.9,4.7h2.3v1.2c0.5-0.4,0.9-0.7,1.4-1c0.4-0.2,1-0.4,1.6-0.4V7c-0.2-0.1-0.5-0.1-0.7-0.1	S21,6.9,20.7,7S20.2,7.2,20,7.4c-0.2,0.2-0.4,0.4-0.6,0.8c-0.1,0.3-0.2,0.7-0.2,1.2V16h-2.3V4.7z"/><path style="fill:#FFFFFF;" d="M23.1,4.7h2.3v1.2c0.5-0.4,0.9-0.7,1.4-1c0.4-0.2,1-0.4,1.6-0.4V7c-0.2-0.1-0.5-0.1-0.7-0.1	s-0.5,0-0.8,0.1s-0.5,0.2-0.8,0.4c-0.2,0.2-0.4,0.4-0.6,0.8c-0.1,0.3-0.2,0.7-0.2,1.2V16h-2.3V4.7z"/><path style="fill:#666666;" d="M29.3,4.7h2.3v1.1h0c0.2-0.4,0.5-0.6,0.9-0.9c0.3-0.2,0.8-0.3,1.3-0.3c0.5,0,0.9,0.1,1.2,0.4	c0.3,0.2,0.6,0.5,0.8,0.8c0.3-0.3,0.6-0.6,0.9-0.8s0.8-0.3,1.4-0.3c0.3,0,0.6,0,0.9,0.1s0.6,0.3,0.8,0.5s0.4,0.5,0.6,0.9	c0.1,0.3,0.2,0.8,0.2,1.3V16h-2.3V8.2c0-0.4-0.1-0.7-0.3-1c-0.2-0.2-0.5-0.4-0.8-0.4c-0.4,0-0.7,0.1-0.9,0.4C36.1,7.5,36,7.9,36,8.4	V16h-2.3V8.2c0-0.4-0.1-0.7-0.3-1S33,6.9,32.7,6.9c-0.4,0-0.7,0.1-0.9,0.4s-0.2,0.7-0.2,1.2V16h-2.3V4.7z"/><path style="fill:#666666;" d="M44,11.2v1.5c0,0.4,0.1,0.6,0.3,0.8s0.5,0.3,0.8,0.3c0.4,0,0.7-0.1,0.9-0.4s0.2-0.5,0.3-0.8h2.3	c0,0.5-0.1,0.9-0.2,1.3c-0.2,0.4-0.4,0.8-0.7,1.1c-0.3,0.3-0.7,0.6-1.1,0.7c-0.4,0.2-0.9,0.3-1.4,0.3c-0.7,0-1.3-0.1-1.8-0.4	c-0.5-0.3-0.9-0.7-1.2-1.2c-0.2-0.3-0.3-0.6-0.3-1c-0.1-0.4-0.1-0.8-0.1-1.3V8.5c0-0.5,0-0.9,0.1-1.3c0.1-0.4,0.2-0.7,0.3-1	c0.3-0.5,0.7-0.9,1.2-1.2c0.5-0.3,1.1-0.4,1.8-0.4c0.5,0,1,0.1,1.4,0.3s0.8,0.4,1.1,0.7c0.3,0.3,0.5,0.7,0.7,1.1	c0.2,0.4,0.2,0.9,0.2,1.4v3.1H44z M44,9.4h2.2V8.2c0-0.4-0.1-0.8-0.3-1c-0.2-0.2-0.5-0.3-0.8-0.3S44.5,7,44.3,7.2	c-0.2,0.2-0.3,0.5-0.3,1V9.4z"/><path style="fill:#666666;" d="M54.2,15c-0.1,0.2-0.3,0.3-0.4,0.5c-0.1,0.1-0.3,0.3-0.4,0.4C53.2,15.9,53,16,52.8,16	c-0.2,0.1-0.5,0.1-0.7,0.1c-0.9,0-1.6-0.4-2-1.1c-0.1-0.3-0.2-0.6-0.3-0.9c-0.1-0.4-0.1-0.9-0.1-1.5V8.4c0-0.8,0-1.4,0.1-1.8	c0-0.4,0.1-0.7,0.3-0.9c0.2-0.3,0.4-0.5,0.7-0.7s0.7-0.3,1.3-0.3c0.4,0,0.8,0.1,1.2,0.3c0.3,0.2,0.6,0.5,0.9,0.9h0V0.2h2.3V16h-2.3	V15z M52,12.3c0,0.5,0.1,0.8,0.3,1.1c0.2,0.3,0.5,0.4,0.8,0.4c0.3,0,0.6-0.1,0.8-0.4c0.2-0.3,0.3-0.6,0.3-1V8.1	c0-0.4-0.1-0.6-0.3-0.9c-0.2-0.2-0.5-0.3-0.8-0.3c-0.4,0-0.7,0.1-0.9,0.4C52.1,7.5,52,7.8,52,8.2V12.3z"/><path style="fill:#666666;" d="M58.2,0.2h2.3v2.3h-2.3V0.2z M58.2,4.7h2.3V16h-2.3V4.7z"/><path style="fill:#666666;" d="M66.6,14.8L66.6,14.8c-0.3,0.4-0.6,0.7-0.9,1c-0.3,0.2-0.7,0.3-1.3,0.3c-0.3,0-0.5,0-0.8-0.1	c-0.3-0.1-0.5-0.2-0.8-0.4c-0.2-0.2-0.4-0.5-0.6-0.9c-0.2-0.4-0.2-0.9-0.2-1.5c0-0.6,0.1-1.2,0.2-1.7c0.1-0.5,0.3-0.9,0.6-1.2	c0.3-0.3,0.6-0.6,1.1-0.7c0.5-0.2,1-0.2,1.8-0.2c0.2,0,0.3,0,0.5,0c0.2,0,0.4,0,0.6,0V8.2c0-0.4-0.1-0.7-0.2-1	c-0.2-0.3-0.5-0.4-0.9-0.4c-0.3,0-0.6,0.1-0.8,0.3c-0.2,0.2-0.4,0.5-0.5,0.8H62c0.1-1,0.4-1.8,1-2.4c0.3-0.3,0.7-0.5,1.1-0.7	c0.4-0.2,0.9-0.3,1.4-0.3c0.5,0,0.9,0.1,1.3,0.2c0.4,0.1,0.8,0.4,1.1,0.7c0.3,0.3,0.5,0.7,0.7,1.1c0.2,0.4,0.3,1,0.3,1.6V16h-2.3	V14.8z M66.6,11.2c-0.3,0-0.5-0.1-0.6-0.1c-0.5,0-0.9,0.1-1.3,0.3s-0.5,0.6-0.5,1.3c0,0.4,0.1,0.8,0.3,1c0.2,0.3,0.5,0.4,0.9,0.4	c0.4,0,0.7-0.1,0.9-0.4s0.3-0.6,0.3-1.1V11.2z"/></svg>